<svg version="1.1" xmlns="http://www.w3.org/2000/svg" xmlns:xlink="http://www.w3.org/1999/xlink" stroke-linecap="round" stroke-linejoin="round" stroke-width="0" fill-rule="evenodd" clip-rule="evenodd" id="LwqXE6FjfgY_5sqstrGC_bottom" viewBox="393.701 393.701 3937.008 984.252" width="3.9370079999999996in" height="0.9842519999999999in" class="w-100 h-100"><defs><style>.LwqXE6FjfgY_5sqstrGC_fr4 {color: #666666;}
.LwqXE6FjfgY_5sqstrGC_cu {color: #cccccc;}
.LwqXE6FjfgY_5sqstrGC_cf {color: #cc9933;}
.LwqXE6FjfgY_5sqstrGC_sm {color: #004200; opacity: 0.75;}
.LwqXE6FjfgY_5sqstrGC_ss {color: #ffffff;}
.LwqXE6FjfgY_5sqstrGC_sp {color: #999999;}
.LwqXE6FjfgY_5sqstrGC_out {color: #000000;}</style><circle cx="0" cy="0" r="13.7765" id="or8IURnPMTtQ7rmbToOF_pad-20"/><rect x="-35.433" y="-39.37" width="70.866" height="78.74" id="ttsbfTaaFyVMdYG9Epkx_pad-46"/><circle cx="0" cy="0" r="59.055" id="ttsbfTaaFyVMdYG9Epkx_pad-38"/><rect x="-25.5905" y="-37.4015" width="51.181" height="74.803" id="ttsbfTaaFyVMdYG9Epkx_pad-42"/><circle cx="0" cy="0" r="20" id="zSyaLhMWpnBwamhiYmVA_pad-36"/><rect x="-31.496" y="-35.433" width="62.992" height="70.866" id="zSyaLhMWpnBwamhiYmVA_pad-17"/><rect x="-21.6535" y="-33.4645" width="43.307" height="66.929" id="zSyaLhMWpnBwamhiYmVA_pad-21"/><circle cx="0" cy="0" r="9.55" id="nDWyMDYf_ZoflYtJC2_2_pad-1"/><circle cx="0" cy="0" r="59.05" id="nDWyMDYf_ZoflYtJC2_2_pad-2"/><g id="LwqXE6FjfgY_5sqstrGC_bottom_silkscreen"><path d="M 964.559 1129.922 807.094 1129.922 807.094 1074.802 964.559 1074.802 964.559 1129.922 M 1948.811 1129.922 1791.346 1129.922 1791.346 1074.802 1948.811 1074.802 1948.811 1129.922 M 2933.063 1129.922 2775.598 1129.922 2775.598 1074.802 2933.063 1074.802 2933.063 1129.922 M 3917.315 1129.922 3759.85 1129.922 3759.85 1074.802 3917.315 1074.802 3917.315 1129.922 M 787.402 984.249 984.246 984.249 984.246 787.379 787.402 787.379 787.402 984.249" fill="none" stroke-width="9.843"/><use xlink:href="#or8IURnPMTtQ7rmbToOF_pad-20" x="986.224" y="761.812"/><path d="M 1771.654 984.249 1968.498 984.249 1968.498 787.379 1771.654 787.379 1771.654 984.249" fill="none" stroke-width="9.843"/><use xlink:href="#or8IURnPMTtQ7rmbToOF_pad-20" x="1970.476" y="761.812"/><path d="M 2755.906 984.249 2952.75 984.249 2952.75 787.379 2755.906 787.379 2755.906 984.249" fill="none" stroke-width="9.843"/><use xlink:href="#or8IURnPMTtQ7rmbToOF_pad-20" x="2954.728" y="761.812"/><path d="M 3740.157 984.249 3937.002 984.249 3937.002 787.379 3740.157 787.379 3740.157 984.249" fill="none" stroke-width="9.843"/><use xlink:href="#or8IURnPMTtQ7rmbToOF_pad-20" x="3938.98" y="761.812"/></g><g id="LwqXE6FjfgY_5sqstrGC_bottom_soldermask"><use xlink:href="#ttsbfTaaFyVMdYG9Epkx_pad-46" x="940.945" y="1102.362"/><use xlink:href="#ttsbfTaaFyVMdYG9Epkx_pad-46" x="830.709" y="1102.362"/><use xlink:href="#ttsbfTaaFyVMdYG9Epkx_pad-46" x="1925.197" y="1102.362"/><use xlink:href="#ttsbfTaaFyVMdYG9Epkx_pad-46" x="1814.961" y="1102.362"/><use xlink:href="#ttsbfTaaFyVMdYG9Epkx_pad-46" x="2909.449" y="1102.362"/><use xlink:href="#ttsbfTaaFyVMdYG9Epkx_pad-46" x="2799.213" y="1102.362"/><use xlink:href="#ttsbfTaaFyVMdYG9Epkx_pad-46" x="3893.701" y="1102.362"/><use xlink:href="#ttsbfTaaFyVMdYG9Epkx_pad-46" x="3783.465" y="1102.362"/><use xlink:href="#ttsbfTaaFyVMdYG9Epkx_pad-38" x="511.811" y="511.811"/><use xlink:href="#ttsbfTaaFyVMdYG9Epkx_pad-38" x="511.811" y="1259.843"/><use xlink:href="#ttsbfTaaFyVMdYG9Epkx_pad-38" x="4212.598" y="511.811"/><use xlink:href="#ttsbfTaaFyVMdYG9Epkx_pad-38" x="4212.598" y="1259.843"/><use xlink:href="#ttsbfTaaFyVMdYG9Epkx_pad-42" x="948.819" y="787.402"/><use xlink:href="#ttsbfTaaFyVMdYG9Epkx_pad-42" x="822.835" y="787.402"/><use xlink:href="#ttsbfTaaFyVMdYG9Epkx_pad-42" x="822.835" y="984.252"/><use xlink:href="#ttsbfTaaFyVMdYG9Epkx_pad-42" x="952.756" y="984.252"/><use xlink:href="#ttsbfTaaFyVMdYG9Epkx_pad-42" x="1933.071" y="787.402"/><use xlink:href="#ttsbfTaaFyVMdYG9Epkx_pad-42" x="1807.087" y="787.402"/><use xlink:href="#ttsbfTaaFyVMdYG9Epkx_pad-42" x="1807.087" y="984.252"/><use xlink:href="#ttsbfTaaFyVMdYG9Epkx_pad-42" x="1937.008" y="984.252"/><use xlink:href="#ttsbfTaaFyVMdYG9Epkx_pad-42" x="2917.323" y="787.402"/><use xlink:href="#ttsbfTaaFyVMdYG9Epkx_pad-42" x="2791.339" y="787.402"/><use xlink:href="#ttsbfTaaFyVMdYG9Epkx_pad-42" x="2791.339" y="984.252"/><use xlink:href="#ttsbfTaaFyVMdYG9Epkx_pad-42" x="2921.26" y="984.252"/><use xlink:href="#ttsbfTaaFyVMdYG9Epkx_pad-42" x="3901.575" y="787.402"/><use xlink:href="#ttsbfTaaFyVMdYG9Epkx_pad-42" x="3775.591" y="787.402"/><use xlink:href="#ttsbfTaaFyVMdYG9Epkx_pad-42" x="3775.591" y="984.252"/><use xlink:href="#ttsbfTaaFyVMdYG9Epkx_pad-42" x="3905.512" y="984.252"/></g><g id="LwqXE6FjfgY_5sqstrGC_bottom_copper"><path d="M 948.819 787.402 948.819 877.953 M 1933.071 787.402 1937.008 787.402 1937.008 885.827 M 2917.323 787.402 2917.323 885.827 M 3901.575 787.402 3901.575 681.102" fill="none" stroke-width="30"/><path d="M 724.803 787.402 822.835 787.402 M 952.756 984.252 1610.236 984.252 1807.087 787.402 M 1937.008 984.252 2594.488 984.252 2791.339 787.402 M 2921.26 984.252 3578.74 984.252 3775.591 787.402 M 3905.512 984.252 4003.937 885.827" fill="none" stroke-width="12"/><path d="M 3783.465 1102.362 3783.465 1204.724 M 826.772 1204.724 826.772 1102.362 830.709 1102.362 M 2802.634 1204.724 2802.634 1105.783 2799.213 1102.362 M 1811.307 1204.724 1811.307 1106.016 1814.961 1102.362 M 830.709 1102.362 822.835 1102.362 822.835 984.252 M 850 878.346 822.835 905.512 822.835 984.252 M 1807.087 984.252 1807.087 1094.488 1814.961 1102.362 M 2791.339 984.252 2791.339 1094.488 2799.213 1102.362 M 3775.591 984.252 3775.591 1094.488 3783.465 1102.362 M 3700.787 984.252 3775.591 984.252" fill="none" stroke-width="30"/><use xlink:href="#zSyaLhMWpnBwamhiYmVA_pad-36" x="948.819" y="877.953"/><use xlink:href="#zSyaLhMWpnBwamhiYmVA_pad-36" x="724.803" y="787.402"/><use xlink:href="#zSyaLhMWpnBwamhiYmVA_pad-36" x="4003.937" y="885.827"/><use xlink:href="#zSyaLhMWpnBwamhiYmVA_pad-36" x="3783.465" y="1204.724"/><use xlink:href="#zSyaLhMWpnBwamhiYmVA_pad-36" x="826.772" y="1204.724"/><use xlink:href="#zSyaLhMWpnBwamhiYmVA_pad-36" x="2802.634" y="1204.724"/><use xlink:href="#zSyaLhMWpnBwamhiYmVA_pad-36" x="1811.307" y="1204.724"/><use xlink:href="#zSyaLhMWpnBwamhiYmVA_pad-36" x="850" y="878.346"/><use xlink:href="#zSyaLhMWpnBwamhiYmVA_pad-36" x="3700.787" y="984.252"/><use xlink:href="#zSyaLhMWpnBwamhiYmVA_pad-36" x="1937.008" y="885.827"/><use xlink:href="#zSyaLhMWpnBwamhiYmVA_pad-36" x="2917.323" y="885.827"/><use xlink:href="#zSyaLhMWpnBwamhiYmVA_pad-36" x="3901.575" y="681.102"/><path d="M 644.94 1313.025 4079.474 1313.025 M 644.94 1288.156 4079.474 1288.156 M 644.94 1263.287 4079.474 1263.287 M 644.94 1238.419 792.232 1238.419 M 861.32 1238.419 1776.786 1238.419 M 1845.84 1238.419 2768.087 1238.419 M 2837.176 1238.419 3748.945 1238.419 M 3817.999 1238.419 4079.474 1238.419 M 644.94 1213.55 778.631 1213.55 M 874.921 1213.55 1763.15 1213.55 M 1859.44 1213.55 2754.487 1213.55 M 2850.776 1213.55 3735.31 1213.55 M 3831.598 1213.55 4079.474 1213.55 M 644.94 1188.681 780.642 1188.681 M 872.912 1188.681 1765.16 1188.681 M 1857.43 1188.681 2756.496 1188.681 M 2848.766 1188.681 3737.319 1188.681 M 3829.589 1188.681 4079.474 1188.681 M 644.94 1163.812 770.235 1163.812 M 1001.449 1163.812 1754.466 1163.812 M 1985.68 1163.812 2738.734 1163.812 M 2969.948 1163.812 3722.965 1163.812 M 3954.178 1163.812 4079.474 1163.812 M 644.94 1138.944 770.235 1138.944 M 1001.449 1138.944 1754.466 1138.944 M 1985.68 1138.944 2738.734 1138.944 M 2969.948 1138.944 3722.965 1138.944 M 3954.178 1138.944 4079.474 1138.944 M 644.94 1114.075 770.235 1114.075 M 1001.449 1114.075 1754.466 1114.075 M 1985.68 1114.075 2738.734 1114.075 M 2969.948 1114.075 3722.965 1114.075 M 3954.178 1114.075 4079.474 1114.075 M 644.94 1089.206 770.235 1089.206 M 1001.449 1089.206 1754.466 1089.206 M 1985.68 1089.206 2738.734 1089.206 M 2969.948 1089.206 3722.965 1089.206 M 3954.178 1089.206 4079.474 1089.206 M 644.94 1064.337 770.235 1064.337 M 1001.449 1064.337 1754.466 1064.337 M 1985.68 1064.337 2738.734 1064.337 M 2969.948 1064.337 3722.965 1064.337 M 3954.178 1064.337 4079.474 1064.337 M 644.94 1039.469 772.172 1039.469 M 873.486 1039.469 902.109 1039.469 M 1003.386 1039.469 1756.44 1039.469 M 1857.717 1039.469 1886.377 1039.469 M 1987.654 1039.469 2740.707 1039.469 M 2841.984 1039.469 2870.608 1039.469 M 2971.921 1039.469 3724.938 1039.469 M 3826.252 1039.469 3854.875 1039.469 M 3956.152 1039.469 4079.474 1039.469 M 644.94 1014.6 772.172 1014.6 M 873.486 1014.6 902.109 1014.6 M 1624.362 1014.6 1756.44 1014.6 M 1857.717 1014.6 1886.377 1014.6 M 2608.593 1014.6 2740.707 1014.6 M 2841.984 1014.6 2870.608 1014.6 M 3592.861 1014.6 3663.075 1014.6 M 3826.252 1014.6 3854.875 1014.6 M 3956.152 1014.6 4079.474 1014.6 M 644.94 989.731 772.172 989.731 M 873.486 989.731 902.109 989.731 M 1653.213 989.731 1756.44 989.731 M 1857.717 989.731 1886.377 989.731 M 2637.445 989.731 2740.707 989.731 M 2841.984 989.731 2870.608 989.731 M 3621.711 989.731 3652.13 989.731 M 3826.252 989.731 3854.875 989.731 M 3956.152 989.731 4079.474 989.731 M 644.94 964.862 772.172 964.862 M 873.486 964.862 902.109 964.862 M 1678.081 964.862 1756.44 964.862 M 1857.717 964.862 1886.377 964.862 M 2662.312 964.862 2740.707 964.862 M 2841.984 964.862 2870.608 964.862 M 3826.252 964.862 3854.875 964.862 M 3973.341 964.862 4079.474 964.862 M 644.94 939.993 772.172 939.993 M 873.486 939.993 902.109 939.993 M 1003.386 939.993 1606.049 939.993 M 1702.949 939.993 1756.44 939.993 M 1857.717 939.993 1886.377 939.993 M 1987.654 939.993 2590.281 939.993 M 2687.18 939.993 2740.707 939.993 M 2841.984 939.993 2870.608 939.993 M 2971.921 939.993 3574.549 939.993 M 3671.448 939.993 3684.067 939.993 M 3826.252 939.993 3854.875 939.993 M 3998.209 939.993 4079.474 939.993 M 644.94 915.125 778.846 915.125 M 880.95 915.125 1630.917 915.125 M 1727.816 915.125 2615.148 915.125 M 2712.084 915.125 3599.416 915.125 M 3696.315 915.125 3926.177 915.125 M 4042.526 915.125 4079.474 915.125 M 644.94 890.256 781.753 890.256 M 897.457 890.256 1655.785 890.256 M 1752.684 890.256 2640.016 890.256 M 2736.951 890.256 3624.283 890.256 M 3721.182 890.256 3951.045 890.256 M 4052.717 890.256 4079.474 890.256 M 644.94 865.387 801.777 865.387 M 897.134 865.387 1680.652 865.387 M 1777.551 865.387 2664.92 865.387 M 2761.819 865.387 3649.151 865.387 M 3746.051 865.387 3959.693 865.387 M 4048.196 865.387 4079.474 865.387 M 644.94 840.518 772.172 840.518 M 879.514 840.518 898.161 840.518 M 999.475 840.518 1705.52 840.518 M 1857.717 840.518 1882.429 840.518 M 1983.706 840.518 2689.787 840.518 M 2841.984 840.518 2866.66 840.518 M 2967.974 840.518 3674.018 840.518 M 3826.252 840.518 3850.928 840.518 M 3952.205 840.518 3991.02 840.518 M 4016.869 840.518 4079.474 840.518 M 644.94 815.65 685.369 815.65 M 873.486 815.65 898.161 815.65 M 999.475 815.65 1730.388 815.65 M 1857.717 815.65 1882.429 815.65 M 1983.706 815.65 2714.655 815.65 M 2841.984 815.65 2866.66 815.65 M 2967.974 815.65 3698.887 815.65 M 3826.252 815.65 3850.928 815.65 M 3952.205 815.65 4079.474 815.65 M 644.94 790.781 675.93 790.781 M 873.486 790.781 898.161 790.781 M 999.475 790.781 1755.256 790.781 M 1857.717 790.781 1882.429 790.781 M 1983.706 790.781 2739.522 790.781 M 2841.984 790.781 2866.66 790.781 M 2967.974 790.781 3723.755 790.781 M 3826.252 790.781 3850.928 790.781 M 3952.205 790.781 4079.474 790.781 M 644.94 765.912 681.063 765.912 M 873.486 765.912 898.161 765.912 M 999.475 765.912 1756.44 765.912 M 1857.717 765.912 1882.429 765.912 M 1983.706 765.912 2740.707 765.912 M 2841.984 765.912 2866.66 765.912 M 2967.974 765.912 3724.938 765.912 M 3826.252 765.912 3850.928 765.912 M 3952.205 765.912 4079.474 765.912 M 644.94 741.043 718.777 741.043 M 730.814 741.043 772.172 741.043 M 873.486 741.043 898.161 741.043 M 999.475 741.043 1756.44 741.043 M 1857.717 741.043 1882.429 741.043 M 1983.706 741.043 2740.707 741.043 M 2841.984 741.043 2866.66 741.043 M 2967.974 741.043 3724.938 741.043 M 3826.252 741.043 3850.928 741.043 M 3952.205 741.043 4079.474 741.043 M 644.94 716.175 4079.474 716.175 M 644.94 691.306 4079.474 691.306 M 644.94 666.437 4079.474 666.437 M 644.94 641.568 4079.474 641.568 M 644.94 616.699 4079.474 616.699 M 644.94 591.831 4079.474 591.831 M 644.94 566.962 4079.474 566.962 M 644.94 542.093 4079.474 542.093 M 644.94 517.224 4079.474 517.224 M 644.94 492.356 4079.474 492.356 M 644.94 467.487 4079.474 467.487 M 644.94 442.618 4079.474 442.618 M 884.794 1164.287 998.933 1164.287 998.933 1044.211 1000.902 1044.209 1000.902 1016.757 1612.786 1016.644 1617.822 1015.846 1622.671 1014.27 1627.214 1011.957 1631.339 1008.959 1678.682 961.757 1793.093 847.346 1855.232 847.358 1855.232 727.445 1758.941 727.445 1758.941 789.633 1596.776 951.762 1000.887 951.76 1000.902 924.295 904.61 924.295 904.61 1040.453 871.007 1040.437 870.98 924.295 864.343 924.295 867.791 921.299 874.293 917.987 880.194 913.699 885.353 908.541 889.64 902.639 892.953 896.138 895.207 889.199 896.349 881.995 896.349 874.698 895.207 867.493 892.953 860.555 889.64 854.054 885.353 848.152 880.194 842.993 874.293 838.706 870.991 836.867 870.98 727.445 774.689 727.445 774.689 754.896 758.064 754.909 752.13 749.789 745.911 745.976 739.171 743.185 732.076 741.482 724.803 740.909 717.53 741.482 710.436 743.185 703.696 745.976 697.476 749.789 691.928 754.526 687.19 760.075 683.378 766.294 680.587 773.034 678.883 780.129 678.311 787.402 678.883 794.675 680.587 801.769 683.378 808.509 687.19 814.728 691.928 820.277 697.476 825.014 703.696 828.827 710.436 831.618 717.53 833.322 724.803 833.894 732.076 833.322 739.171 831.618 745.911 828.827 752.13 825.014 758.037 819.888 774.718 819.894 774.689 847.358 815.346 847.358 812.387 851.02 808.575 857.239 805.837 863.832 791.283 878.564 787.457 883.832 784.501 889.634 782.49 895.825 781.47 902.256 781.343 924.28 774.689 924.295 774.689 1040.453 772.72 1040.437 772.72 1164.287 785.244 1164.287 785.28 1183.783 782.555 1190.357 780.852 1197.451 780.28 1204.724 780.852 1211.997 782.555 1219.092 785.346 1225.832 789.159 1232.051 793.896 1237.6 799.445 1242.337 805.664 1246.15 812.404 1248.941 819.499 1250.644 826.772 1251.217 834.045 1250.644 841.139 1248.941 847.879 1246.15 854.098 1242.337 859.647 1237.6 864.385 1232.051 868.197 1225.832 870.988 1219.092 872.692 1211.997 873.264 1204.724 872.692 1197.451 870.988 1190.357 868.262 1183.76 868.264 1164.283 884.794 1164.287 M 1869.046 1164.287 1983.185 1164.287 1983.185 1044.211 1985.154 1044.209 1985.154 1016.757 2597.038 1016.644 2602.073 1015.846 2606.923 1014.27 2611.466 1011.957 2615.591 1008.959 2662.934 961.757 2777.345 847.346 2839.484 847.358 2839.484 727.445 2743.193 727.445 2743.193 789.633 2581.028 951.762 1985.139 951.76 1985.154 924.295 1888.862 924.295 1888.862 1040.453 1855.259 1040.437 1855.232 924.295 1758.941 924.295 1758.941 1040.453 1756.972 1040.437 1756.972 1164.287 1769.783 1164.287 1769.815 1183.777 1767.091 1190.357 1765.387 1197.451 1764.815 1204.724 1765.387 1211.997 1767.091 1219.092 1769.882 1225.832 1773.694 1232.051 1778.432 1237.6 1783.98 1242.337 1790.199 1246.15 1796.94 1248.941 1804.034 1250.644 1811.307 1251.217 1818.58 1250.644 1825.675 1248.941 1832.415 1246.15 1838.634 1242.337 1844.182 1237.6 1848.92 1232.051 1852.732 1225.832 1855.524 1219.092 1857.227 1211.997 1857.799 1204.724 1857.227 1197.451 1855.524 1190.357 1852.798 1183.76 1852.799 1164.283 1869.046 1164.287 M 2853.298 1164.287 2967.437 1164.287 2967.437 1044.211 2969.406 1044.209 2969.406 1016.757 3581.29 1016.644 3586.325 1015.846 3591.175 1014.27 3595.718 1011.957 3599.843 1008.959 3647.186 961.757 3761.597 847.346 3823.736 847.358 3823.736 727.445 3727.445 727.445 3727.445 789.633 3565.28 951.762 2969.391 951.76 2969.406 924.295 2873.114 924.295 2873.114 1040.451 2839.51 1040.437 2839.484 924.295 2743.193 924.295 2743.193 1040.451 2741.224 1040.437 2741.224 1164.287 2761.14 1164.287 2761.142 1183.76 2758.417 1190.357 2756.714 1197.451 2756.142 1204.724 2756.714 1211.997 2758.417 1219.092 2761.209 1225.832 2765.021 1232.051 2769.759 1237.6 2775.307 1242.337 2781.526 1246.15 2788.266 1248.941 2795.361 1250.644 2802.634 1251.217 2809.907 1250.644 2817.001 1248.941 2823.741 1246.15 2829.961 1242.337 2835.509 1237.6 2840.247 1232.051 2844.059 1225.832 2846.85 1219.092 2848.554 1211.997 2849.126 1204.724 2848.554 1197.451 2846.85 1190.357 2844.125 1183.76 2844.126 1164.283 2853.298 1164.287 M 3837.55 1164.287 3951.689 1164.287 3951.689 1044.211 3953.657 1044.209 3953.657 982.021 4003.416 932.298 4011.21 931.747 4018.304 930.043 4025.045 927.252 4031.264 923.44 4036.812 918.702 4041.55 913.154 4045.362 906.934 4048.154 900.194 4049.857 893.1 4050.429 885.827 4049.857 878.554 4048.154 871.459 4045.362 864.719 4041.55 858.5 4036.812 852.951 4031.264 848.214 4025.045 844.402 4018.304 841.61 4011.21 839.907 4003.937 839.335 3996.664 839.907 3989.57 841.61 3982.829 844.402 3976.61 848.214 3971.062 852.951 3966.324 858.5 3962.512 864.719 3959.72 871.459 3958.017 878.554 3957.466 886.354 3919.531 924.282 3857.366 924.295 3857.366 1040.453 3823.762 1040.437 3823.736 924.295 3727.445 924.295 3727.445 942.776 3718.579 941.299 3711.64 939.045 3704.436 937.903 3697.139 937.903 3689.934 939.045 3682.996 941.299 3676.495 944.612 3670.593 948.899 3665.434 954.058 3661.147 959.959 3657.835 966.461 3655.58 973.399 3654.438 980.604 3654.438 987.9 3655.58 995.105 3657.835 1002.043 3661.147 1008.545 3665.434 1014.446 3670.593 1019.605 3676.495 1023.892 3682.996 1027.205 3689.934 1029.459 3697.139 1030.601 3704.436 1030.601 3711.64 1029.459 3718.579 1027.205 3721.752 1025.743 3725.476 1040.437 3725.476 1164.287 3741.948 1164.287 3741.972 1183.783 3739.248 1190.357 3737.545 1197.451 3736.972 1204.724 3737.545 1211.997 3739.248 1219.092 3742.039 1225.832 3745.852 1232.051 3750.589 1237.6 3756.138 1242.337 3762.357 1246.15 3769.097 1248.941 3776.192 1250.644 3783.465 1251.217 3790.738 1250.644 3797.832 1248.941 3804.572 1246.15 3810.791 1242.337 3816.34 1237.6 3821.077 1232.051 3824.89 1225.832 3827.681 1219.092 3829.385 1211.997 3829.957 1204.724 3829.385 1197.451 3827.681 1190.357 3824.955 1183.76 3824.957 1164.283 3837.55 1164.287 M 902.51 847.358 996.965 847.358 996.965 727.445 900.673 727.445 900.673 847.358 902.51 847.358 M 1886.762 847.358 1981.217 847.358 1981.217 727.445 1884.925 727.445 1884.925 847.358 1886.762 847.358 M 2871.014 847.358 2965.469 847.358 2965.469 727.445 2869.177 727.445 2869.177 847.358 2871.014 847.358 M 3855.266 847.358 3949.72 847.358 3949.72 727.445 3853.429 727.445 3853.429 847.358 3855.266 847.358 M 3727.445 1025.74 3727.445 1040.453 M 642.445 433.76 4082.016 433.76 4081.988 1337.921 642.394 1337.894 642.421 433.732" fill="none" stroke-width="25"/><path d="M 940.945 1164.252 940.945 1102.362 998.898 1102.362 M 1925.197 1164.252 1925.197 1102.362 1983.15 1102.362 M 2909.449 1164.252 2909.449 1102.362 2967.402 1102.362 M 3893.701 1164.252 3893.701 1102.362 3951.654 1102.362 M 948.819 847.323 948.819 727.48 M 900.709 787.402 996.929 787.402 M 1933.071 847.323 1933.071 727.48 M 1884.961 787.402 1981.181 787.402 M 2917.323 847.322 2917.323 727.48 M 2869.214 787.402 2965.433 787.402 M 3901.575 847.323 3901.575 727.48 M 3853.465 787.402 3949.685 787.402" fill="none" stroke-width="30"/><use xlink:href="#zSyaLhMWpnBwamhiYmVA_pad-17" x="940.945" y="1102.362"/><use xlink:href="#zSyaLhMWpnBwamhiYmVA_pad-17" x="830.709" y="1102.362"/><use xlink:href="#zSyaLhMWpnBwamhiYmVA_pad-17" x="1925.197" y="1102.362"/><use xlink:href="#zSyaLhMWpnBwamhiYmVA_pad-17" x="1814.961" y="1102.362"/><use xlink:href="#zSyaLhMWpnBwamhiYmVA_pad-17" x="2909.449" y="1102.362"/><use xlink:href="#zSyaLhMWpnBwamhiYmVA_pad-17" x="2799.213" y="1102.362"/><use xlink:href="#zSyaLhMWpnBwamhiYmVA_pad-17" x="3893.701" y="1102.362"/><use xlink:href="#zSyaLhMWpnBwamhiYmVA_pad-17" x="3783.465" y="1102.362"/><use xlink:href="#zSyaLhMWpnBwamhiYmVA_pad-21" x="948.819" y="787.402"/><use xlink:href="#zSyaLhMWpnBwamhiYmVA_pad-21" x="822.835" y="787.402"/><use xlink:href="#zSyaLhMWpnBwamhiYmVA_pad-21" x="822.835" y="984.252"/><use xlink:href="#zSyaLhMWpnBwamhiYmVA_pad-21" x="952.756" y="984.252"/><use xlink:href="#zSyaLhMWpnBwamhiYmVA_pad-21" x="1933.071" y="787.402"/><use xlink:href="#zSyaLhMWpnBwamhiYmVA_pad-21" x="1807.087" y="787.402"/><use xlink:href="#zSyaLhMWpnBwamhiYmVA_pad-21" x="1807.087" y="984.252"/><use xlink:href="#zSyaLhMWpnBwamhiYmVA_pad-21" x="1937.008" y="984.252"/><use xlink:href="#zSyaLhMWpnBwamhiYmVA_pad-21" x="2917.323" y="787.402"/><use xlink:href="#zSyaLhMWpnBwamhiYmVA_pad-21" x="2791.339" y="787.402"/><use xlink:href="#zSyaLhMWpnBwamhiYmVA_pad-21" x="2791.339" y="984.252"/><use xlink:href="#zSyaLhMWpnBwamhiYmVA_pad-21" x="2921.26" y="984.252"/><use xlink:href="#zSyaLhMWpnBwamhiYmVA_pad-21" x="3901.575" y="787.402"/><use xlink:href="#zSyaLhMWpnBwamhiYmVA_pad-21" x="3775.591" y="787.402"/><use xlink:href="#zSyaLhMWpnBwamhiYmVA_pad-21" x="3775.591" y="984.252"/><use xlink:href="#zSyaLhMWpnBwamhiYmVA_pad-21" x="3905.512" y="984.252"/></g><g id="LwqXE6FjfgY_5sqstrGC_bottom_drill1"><use xlink:href="#nDWyMDYf_ZoflYtJC2_2_pad-1" x="1937" y="885.8"/><use xlink:href="#nDWyMDYf_ZoflYtJC2_2_pad-1" x="1811.3" y="1204.7"/><use xlink:href="#nDWyMDYf_ZoflYtJC2_2_pad-1" x="948.8" y="878"/><use xlink:href="#nDWyMDYf_ZoflYtJC2_2_pad-1" x="850" y="878.3"/><use xlink:href="#nDWyMDYf_ZoflYtJC2_2_pad-1" x="724.8" y="787.4"/><use xlink:href="#nDWyMDYf_ZoflYtJC2_2_pad-1" x="826.8" y="1204.7"/><use xlink:href="#nDWyMDYf_ZoflYtJC2_2_pad-1" x="2802.6" y="1204.7"/><use xlink:href="#nDWyMDYf_ZoflYtJC2_2_pad-1" x="2917.3" y="885.8"/><use xlink:href="#nDWyMDYf_ZoflYtJC2_2_pad-1" x="3700.8" y="984.3"/><use xlink:href="#nDWyMDYf_ZoflYtJC2_2_pad-1" x="3783.5" y="1204.7"/><use xlink:href="#nDWyMDYf_ZoflYtJC2_2_pad-1" x="4003.9" y="885.8"/><use xlink:href="#nDWyMDYf_ZoflYtJC2_2_pad-1" x="3901.6" y="681.1"/><use xlink:href="#nDWyMDYf_ZoflYtJC2_2_pad-2" x="511.8" y="511.8"/><use xlink:href="#nDWyMDYf_ZoflYtJC2_2_pad-2" x="511.8" y="1259.8"/><use xlink:href="#nDWyMDYf_ZoflYtJC2_2_pad-2" x="4212.6" y="1259.8"/><use xlink:href="#nDWyMDYf_ZoflYtJC2_2_pad-2" x="4212.6" y="511.8"/></g><clipPath id="LwqXE6FjfgY_5sqstrGC_bottom_outline"><path d="M 393.701 393.701 4330.709 393.701 4330.709 1377.953 393.701 1377.953 393.701 393.701" fill="none" stroke-width="5.512"/></clipPath><mask id="LwqXE6FjfgY_5sqstrGC_bottom_mech-mask"><g fill="#000" stroke="#000"><rect x="393.701" y="393.701" width="3937.008" height="984.252" fill="#fff"/><use xlink:href="#LwqXE6FjfgY_5sqstrGC_bottom_drill1"/></g></mask><mask id="LwqXE6FjfgY_5sqstrGC_bottom_cf-mask"><g fill="#fff" stroke="#fff"><use xlink:href="#LwqXE6FjfgY_5sqstrGC_bottom_soldermask"/></g></mask><mask id="LwqXE6FjfgY_5sqstrGC_bottom_sm-mask"><g fill="#000" stroke="#000"><rect x="393.701" y="393.701" width="3937.008" height="984.252" fill="#fff"/><use xlink:href="#LwqXE6FjfgY_5sqstrGC_bottom_soldermask"/></g></mask></defs><g transform="translate(0,1771.654) scale(1,-1)"><g mask="url(#LwqXE6FjfgY_5sqstrGC_bottom_mech-mask)" clip-path="url(#LwqXE6FjfgY_5sqstrGC_bottom_outline)" transform="translate(4724.41,0) scale(-1,1)"><rect x="393.701" y="393.701" width="3937.008" height="984.252" fill="currentColor" class="LwqXE6FjfgY_5sqstrGC_fr4"/><use xlink:href="#LwqXE6FjfgY_5sqstrGC_bottom_copper" fill="currentColor" stroke="currentColor" class="LwqXE6FjfgY_5sqstrGC_cu"/><use xlink:href="#LwqXE6FjfgY_5sqstrGC_bottom_copper" fill="currentColor" stroke="currentColor" class="LwqXE6FjfgY_5sqstrGC_cf" mask="url(#LwqXE6FjfgY_5sqstrGC_bottom_cf-mask)"/><g mask="url(#LwqXE6FjfgY_5sqstrGC_bottom_sm-mask)"><rect x="393.701" y="393.701" width="3937.008" height="984.252" fill="currentColor" class="LwqXE6FjfgY_5sqstrGC_sm"/><use xlink:href="#LwqXE6FjfgY_5sqstrGC_bottom_silkscreen" fill="currentColor" stroke="currentColor" class="LwqXE6FjfgY_5sqstrGC_ss"/></g></g></g></svg>