<svg version="1.1" xmlns="http://www.w3.org/2000/svg" xmlns:xlink="http://www.w3.org/1999/xlink" stroke-linecap="round" stroke-linejoin="round" stroke-width="0" fill-rule="evenodd" width="3.170276in" height="0.386808in" viewBox="782.4805 748.0355 3170.276 386.808" id="or8IURnPMTtQ7rmbToOF"><defs><circle cx="0" cy="0" r="13.7765" id="or8IURnPMTtQ7rmbToOF_pad-20"/></defs><g transform="translate(0,1882.879) scale(1,-1)" fill="currentColor" stroke="currentColor"><path d="M 964.559 1129.922 807.094 1129.922 807.094 1074.802 964.559 1074.802 964.559 1129.922 M 1948.811 1129.922 1791.346 1129.922 1791.346 1074.802 1948.811 1074.802 1948.811 1129.922 M 2933.063 1129.922 2775.598 1129.922 2775.598 1074.802 2933.063 1074.802 2933.063 1129.922 M 3917.315 1129.922 3759.85 1129.922 3759.85 1074.802 3917.315 1074.802 3917.315 1129.922 M 787.402 984.249 984.246 984.249 984.246 787.379 787.402 787.379 787.402 984.249" fill="none" stroke-width="9.843"/><use xlink:href="#or8IURnPMTtQ7rmbToOF_pad-20" x="986.224" y="761.812"/><path d="M 1771.654 984.249 1968.498 984.249 1968.498 787.379 1771.654 787.379 1771.654 984.249" fill="none" stroke-width="9.843"/><use xlink:href="#or8IURnPMTtQ7rmbToOF_pad-20" x="1970.476" y="761.812"/><path d="M 2755.906 984.249 2952.75 984.249 2952.75 787.379 2755.906 787.379 2755.906 984.249" fill="none" stroke-width="9.843"/><use xlink:href="#or8IURnPMTtQ7rmbToOF_pad-20" x="2954.728" y="761.812"/><path d="M 3740.157 984.249 3937.002 984.249 3937.002 787.379 3740.157 787.379 3740.157 984.249" fill="none" stroke-width="9.843"/><use xlink:href="#or8IURnPMTtQ7rmbToOF_pad-20" x="3938.98" y="761.812"/></g></svg>