<svg version="1.1" xmlns="http://www.w3.org/2000/svg" xmlns:xlink="http://www.w3.org/1999/xlink" stroke-linecap="round" stroke-linejoin="round" stroke-width="0" fill-rule="evenodd" width="3.8188969999999998in" height="0.8661420000000001in" viewBox="452.756 452.756 3818.897 866.142" id="ttsbfTaaFyVMdYG9Epkx"><defs><rect x="-35.433" y="-39.37" width="70.866" height="78.74" id="ttsbfTaaFyVMdYG9Epkx_pad-46"/><circle cx="0" cy="0" r="59.055" id="ttsbfTaaFyVMdYG9Epkx_pad-38"/><rect x="-25.5905" y="-37.4015" width="51.181" height="74.803" id="ttsbfTaaFyVMdYG9Epkx_pad-42"/></defs><g transform="translate(0,1771.654) scale(1,-1)" fill="currentColor" stroke="currentColor"><use xlink:href="#ttsbfTaaFyVMdYG9Epkx_pad-46" x="940.945" y="1102.362"/><use xlink:href="#ttsbfTaaFyVMdYG9Epkx_pad-46" x="830.709" y="1102.362"/><use xlink:href="#ttsbfTaaFyVMdYG9Epkx_pad-46" x="1925.197" y="1102.362"/><use xlink:href="#ttsbfTaaFyVMdYG9Epkx_pad-46" x="1814.961" y="1102.362"/><use xlink:href="#ttsbfTaaFyVMdYG9Epkx_pad-46" x="2909.449" y="1102.362"/><use xlink:href="#ttsbfTaaFyVMdYG9Epkx_pad-46" x="2799.213" y="1102.362"/><use xlink:href="#ttsbfTaaFyVMdYG9Epkx_pad-46" x="3893.701" y="1102.362"/><use xlink:href="#ttsbfTaaFyVMdYG9Epkx_pad-46" x="3783.465" y="1102.362"/><use xlink:href="#ttsbfTaaFyVMdYG9Epkx_pad-38" x="511.811" y="511.811"/><use xlink:href="#ttsbfTaaFyVMdYG9Epkx_pad-38" x="511.811" y="1259.843"/><use xlink:href="#ttsbfTaaFyVMdYG9Epkx_pad-38" x="4212.598" y="511.811"/><use xlink:href="#ttsbfTaaFyVMdYG9Epkx_pad-38" x="4212.598" y="1259.843"/><use xlink:href="#ttsbfTaaFyVMdYG9Epkx_pad-42" x="948.819" y="787.402"/><use xlink:href="#ttsbfTaaFyVMdYG9Epkx_pad-42" x="822.835" y="787.402"/><use xlink:href="#ttsbfTaaFyVMdYG9Epkx_pad-42" x="822.835" y="984.252"/><use xlink:href="#ttsbfTaaFyVMdYG9Epkx_pad-42" x="952.756" y="984.252"/><use xlink:href="#ttsbfTaaFyVMdYG9Epkx_pad-42" x="1933.071" y="787.402"/><use xlink:href="#ttsbfTaaFyVMdYG9Epkx_pad-42" x="1807.087" y="787.402"/><use xlink:href="#ttsbfTaaFyVMdYG9Epkx_pad-42" x="1807.087" y="984.252"/><use xlink:href="#ttsbfTaaFyVMdYG9Epkx_pad-42" x="1937.008" y="984.252"/><use xlink:href="#ttsbfTaaFyVMdYG9Epkx_pad-42" x="2917.323" y="787.402"/><use xlink:href="#ttsbfTaaFyVMdYG9Epkx_pad-42" x="2791.339" y="787.402"/><use xlink:href="#ttsbfTaaFyVMdYG9Epkx_pad-42" x="2791.339" y="984.252"/><use xlink:href="#ttsbfTaaFyVMdYG9Epkx_pad-42" x="2921.26" y="984.252"/><use xlink:href="#ttsbfTaaFyVMdYG9Epkx_pad-42" x="3901.575" y="787.402"/><use xlink:href="#ttsbfTaaFyVMdYG9Epkx_pad-42" x="3775.591" y="787.402"/><use xlink:href="#ttsbfTaaFyVMdYG9Epkx_pad-42" x="3775.591" y="984.252"/><use xlink:href="#ttsbfTaaFyVMdYG9Epkx_pad-42" x="3905.512" y="984.252"/></g></svg>