<svg version="1.1" xmlns="http://www.w3.org/2000/svg" xmlns:xlink="http://www.w3.org/1999/xlink" stroke-linecap="round" stroke-linejoin="round" stroke-width="0" fill-rule="evenodd" width="3.464622in" height="0.9291889999999999in" viewBox="629.894 421.232 3464.622 929.189" id="FYALDuMFikz8WZp6DYk0"><defs><circle cx="0" cy="0" r="20" id="FYALDuMFikz8WZp6DYk0_pad-36"/><rect x="-62.5985" y="-25" width="125.197" height="50" id="FYALDuMFikz8WZp6DYk0_pad-19"/></defs><g transform="translate(0,1771.653) scale(1,-1)" fill="currentColor" stroke="currentColor"><path d="M 948.819 877.953 850 976.772 850 985.827" fill="none" stroke-width="30"/><path d="M 724.803 885.827 724.803 787.402 M 4003.937 885.827 3874.409 885.827" fill="none" stroke-width="12"/><path d="M 3783.465 1204.724 2802.634 1204.724 1811.307 1204.724 826.772 1204.724 M 850 785.827 850 878.346 M 3999.606 785.827 3832.283 785.827 3700.787 917.323 3700.787 984.252" fill="none" stroke-width="30"/><use xlink:href="#FYALDuMFikz8WZp6DYk0_pad-36" x="948.819" y="877.953"/><use xlink:href="#FYALDuMFikz8WZp6DYk0_pad-36" x="724.803" y="787.402"/><use xlink:href="#FYALDuMFikz8WZp6DYk0_pad-36" x="4003.937" y="885.827"/><use xlink:href="#FYALDuMFikz8WZp6DYk0_pad-36" x="3783.465" y="1204.724"/><use xlink:href="#FYALDuMFikz8WZp6DYk0_pad-36" x="826.772" y="1204.724"/><use xlink:href="#FYALDuMFikz8WZp6DYk0_pad-36" x="2802.634" y="1204.724"/><use xlink:href="#FYALDuMFikz8WZp6DYk0_pad-36" x="1811.307" y="1204.724"/><use xlink:href="#FYALDuMFikz8WZp6DYk0_pad-36" x="850" y="878.346"/><use xlink:href="#FYALDuMFikz8WZp6DYk0_pad-36" x="3700.787" y="984.252"/><use xlink:href="#FYALDuMFikz8WZp6DYk0_pad-36" x="1937.008" y="885.827"/><use xlink:href="#FYALDuMFikz8WZp6DYk0_pad-36" x="2917.323" y="885.827"/><use xlink:href="#FYALDuMFikz8WZp6DYk0_pad-36" x="3901.575" y="681.102"/><path d="M 644.94 1313.025 4079.474 1313.025 M 644.94 1288.156 4079.474 1288.156 M 644.94 1263.287 4079.474 1263.287 M 644.94 1238.419 792.232 1238.419 M 3817.999 1238.419 4079.474 1238.419 M 644.94 1213.55 778.631 1213.55 M 3831.598 1213.55 4079.474 1213.55 M 644.94 1188.681 780.642 1188.681 M 3829.589 1188.681 4079.474 1188.681 M 644.94 1163.812 802.172 1163.812 M 3808.059 1163.812 4079.474 1163.812 M 644.94 1138.944 4079.474 1138.944 M 644.94 1114.075 4079.474 1114.075 M 644.94 1089.206 4079.474 1089.206 M 644.94 1064.337 4079.474 1064.337 M 644.94 1039.469 4079.474 1039.469 M 644.94 1014.6 758.392 1014.6 M 941.593 1014.6 3663.075 1014.6 M 3738.514 1014.6 3908.02 1014.6 M 644.94 989.731 758.392 989.731 M 941.593 989.731 3652.13 989.731 M 3749.459 989.731 3908.02 989.731 M 644.94 964.862 758.392 964.862 M 941.593 964.862 3656.041 964.862 M 3745.549 964.862 3908.02 964.862 M 644.94 939.993 758.392 939.993 M 941.593 939.993 3656.794 939.993 M 3744.795 939.993 3908.02 939.993 M 880.95 915.125 3656.866 915.125 M 3764.172 915.125 3782.82 915.125 M 4042.526 915.125 4079.474 915.125 M 897.457 890.256 3666.843 890.256 M 4052.717 890.256 4079.474 890.256 M 897.134 865.387 3691.53 865.387 M 4048.196 865.387 4079.474 865.387 M 893.975 840.518 3716.398 840.518 M 3965.984 840.518 3991.02 840.518 M 4016.869 840.518 4079.474 840.518 M 644.94 815.65 685.369 815.65 M 941.593 815.65 3741.266 815.65 M 644.94 790.781 675.93 790.781 M 941.593 790.781 3766.134 790.781 M 644.94 765.912 681.063 765.912 M 941.593 765.912 3791.001 765.912 M 644.94 741.043 718.777 741.043 M 730.814 741.043 758.392 741.043 M 941.593 741.043 3908.02 741.043 M 644.94 716.175 4079.474 716.175 M 644.94 691.306 4079.474 691.306 M 644.94 666.437 4079.474 666.437 M 644.94 641.568 4079.474 641.568 M 644.94 616.699 4079.474 616.699 M 644.94 591.831 4079.474 591.831 M 644.94 566.962 4079.474 566.962 M 644.94 542.093 4079.474 542.093 M 644.94 517.224 4079.474 517.224 M 644.94 492.356 4079.474 492.356 M 644.94 467.487 4079.474 467.487 M 644.94 442.618 4079.474 442.618 M 762.747 1037.319 939.091 1037.319 939.091 934.335 813.891 934.335 813.894 907.643 817.125 911.222 822.673 915.959 828.892 919.772 835.633 922.563 842.727 924.266 850 924.839 857.273 924.266 864.367 922.563 871.108 919.772 877.327 915.959 882.875 911.222 887.613 905.673 891.425 899.454 894.217 892.714 895.92 885.619 896.492 878.346 895.92 871.073 894.217 863.979 891.491 857.382 891.492 837.331 939.091 837.319 939.091 734.335 760.909 734.335 760.909 758.126 757.678 754.526 752.13 749.789 745.911 745.976 739.171 743.185 732.076 741.482 724.803 740.909 717.53 741.482 710.436 743.185 703.696 745.976 697.476 749.789 691.928 754.526 687.19 760.075 683.378 766.294 680.587 773.034 678.883 780.129 678.311 787.402 678.883 794.675 680.587 801.769 683.378 808.509 687.19 814.728 692.316 820.635 692.311 834.302 642.403 834.335 642.421 433.732 4082.016 433.76 4081.988 734.349 3910.516 734.335 3910.516 744.346 3829.028 744.462 3822.597 745.48 3816.406 747.493 3810.604 750.449 3805.336 754.276 3776.961 782.47 3669.236 890.375 3665.409 895.643 3662.454 901.445 3660.441 907.636 3659.423 914.067 3659.295 954.068 3659.295 963.29 3656.571 969.885 3654.867 976.979 3654.295 984.252 3654.867 991.525 3656.571 998.619 3659.362 1005.36 3663.175 1011.579 3667.912 1017.127 3673.461 1021.865 3679.68 1025.677 3686.42 1028.469 3693.514 1030.172 3700.787 1030.744 3708.06 1030.172 3715.155 1028.469 3721.895 1025.677 3728.114 1021.865 3733.663 1017.127 3738.4 1011.579 3742.213 1005.36 3745.004 998.619 3746.707 991.525 3747.28 984.252 3746.707 976.979 3745.004 969.885 3742.278 963.287 3742.28 934.48 3785.315 891.474 3785.319 937.319 3910.518 937.319 3910.516 1037.319 4081.992 1037.319 4081.988 1337.921 642.394 1337.894 642.421 937.331 760.912 937.319 760.909 1037.319 762.747 1037.319 M 4081.987 934.335 3963.497 934.335 3963.5 918.336 3970.686 918.319 3976.61 923.44 3982.829 927.252 3989.57 930.043 3996.664 931.747 4003.937 932.319 4011.21 931.747 4018.304 930.043 4025.045 927.252 4031.264 923.44 4036.812 918.702 4041.55 913.154 4045.362 906.934 4048.154 900.194 4049.857 893.1 4050.429 885.827 4049.857 878.554 4048.154 871.459 4045.362 864.719 4041.55 858.5 4036.812 852.951 4031.264 848.214 4025.045 844.402 4018.304 841.61 4011.21 839.907 4003.937 839.335 3996.664 839.907 3989.57 841.61 3982.829 844.402 3976.61 848.214 3970.703 853.34 3963.496 853.335 3963.5 837.31 4082.007 837.319 4081.988 934.367 M 3762.472 1163.232 2823.598 1163.232 2817.001 1160.508 2809.907 1158.804 2802.634 1158.232 2795.361 1158.804 2788.266 1160.508 2781.669 1163.234 1832.29 1163.232 1825.675 1160.508 1818.58 1158.804 1811.307 1158.232 1804.034 1158.804 1796.94 1160.508 1790.343 1163.234 847.781 1163.232 841.139 1160.508 834.045 1158.804 826.772 1158.232 819.499 1158.804 812.404 1160.508 805.664 1163.299 799.445 1167.112 793.896 1171.849 789.159 1177.398 785.346 1183.617 782.555 1190.357 780.852 1197.451 780.28 1204.724 780.852 1211.997 782.555 1219.092 785.346 1225.832 789.159 1232.051 793.896 1237.6 799.445 1242.337 805.664 1246.15 812.404 1248.941 819.499 1250.644 826.772 1251.217 834.045 1250.644 841.139 1248.941 847.736 1246.215 1790.298 1246.217 1796.94 1248.941 1804.034 1250.644 1811.307 1251.217 1818.58 1250.644 1825.675 1248.941 1832.272 1246.215 2781.651 1246.217 2788.266 1248.941 2795.361 1250.644 2802.634 1251.217 2809.907 1250.644 2817.001 1248.941 2823.598 1246.215 3762.5 1246.217 3769.097 1248.941 3776.192 1250.644 3783.465 1251.217 3790.738 1250.644 3797.832 1248.941 3804.572 1246.15 3810.791 1242.337 3816.34 1237.6 3821.077 1232.051 3824.89 1225.832 3827.681 1219.092 3829.385 1211.997 3829.957 1204.724 3829.385 1197.451 3827.681 1190.357 3824.89 1183.617 3821.077 1177.398 3816.34 1171.849 3810.791 1167.112 3804.572 1163.299 3797.832 1160.508 3790.738 1158.804 3783.465 1158.232 3776.192 1158.804 3769.097 1160.508 3762.5 1163.234" fill="none" stroke-width="25"/><path d="M 850 1037.283 850 934.37 M 760.945 985.827 939.055 985.827 M 3999.606 1037.283 3999.606 934.37 M 3910.551 985.827 3999.606 985.827" fill="none" stroke-width="30"/><use xlink:href="#FYALDuMFikz8WZp6DYk0_pad-19" x="850" y="985.827"/><use xlink:href="#FYALDuMFikz8WZp6DYk0_pad-19" x="724.803" y="885.827"/><use xlink:href="#FYALDuMFikz8WZp6DYk0_pad-19" x="850" y="785.827"/><use xlink:href="#FYALDuMFikz8WZp6DYk0_pad-19" x="3999.606" y="985.827"/><use xlink:href="#FYALDuMFikz8WZp6DYk0_pad-19" x="3874.409" y="885.827"/><use xlink:href="#FYALDuMFikz8WZp6DYk0_pad-19" x="3999.606" y="785.827"/></g></svg>