<svg version="1.1" xmlns="http://www.w3.org/2000/svg" xmlns:xlink="http://www.w3.org/1999/xlink" stroke-linecap="round" stroke-linejoin="round" stroke-width="0" fill-rule="evenodd" width="3.3114250000000003in" height="0.8506035000000001in" viewBox="733.4525 455.29 3311.425 850.6035" id="SDAWIzbJHrlG4WvJ_iet"><defs><circle cx="0" cy="0" r="13.7715" id="SDAWIzbJHrlG4WvJ_iet_pad-18"/><circle cx="0" cy="0" r="7.792" id="SDAWIzbJHrlG4WvJ_iet_pad-22"/><circle cx="0" cy="0" r="16.3885" id="SDAWIzbJHrlG4WvJ_iet_pad-23"/><circle cx="0" cy="0" r="6.2555" id="SDAWIzbJHrlG4WvJ_iet_pad-24"/><circle cx="0" cy="0" r="6.2555" id="SDAWIzbJHrlG4WvJ_iet_pad-25"/><circle cx="0" cy="0" r="6.219" id="SDAWIzbJHrlG4WvJ_iet_pad-26"/><circle cx="0" cy="0" r="6.219" id="SDAWIzbJHrlG4WvJ_iet_pad-27"/><circle cx="0" cy="0" r="6.987" id="SDAWIzbJHrlG4WvJ_iet_pad-28"/><rect x="-7.792" y="-7.022" width="15.584" height="14.044" rx="7.022" ry="7.022" id="SDAWIzbJHrlG4WvJ_iet_pad-29"/><rect x="-13.2425" y="-16.3815" width="26.485" height="32.763" rx="13.2425" ry="13.2425" id="SDAWIzbJHrlG4WvJ_iet_pad-30"/><rect x="-3.9145" y="-3.1235" width="7.829" height="6.247" rx="3.1235" ry="3.1235" id="SDAWIzbJHrlG4WvJ_iet_pad-31"/><circle cx="0" cy="0" r="7.0235" id="SDAWIzbJHrlG4WvJ_iet_pad-32"/><rect x="-7.8285" y="-7.022" width="15.657" height="14.044" rx="7.022" ry="7.022" id="SDAWIzbJHrlG4WvJ_iet_pad-33"/><rect x="-6.219" y="-7.022" width="12.438" height="14.044" rx="6.219" ry="6.219" id="SDAWIzbJHrlG4WvJ_iet_pad-34"/><rect x="-6.219" y="-5.4605" width="12.438" height="10.921" rx="5.4605" ry="5.4605" id="SDAWIzbJHrlG4WvJ_iet_pad-35"/></defs><g transform="translate(0,1761.1835) scale(1,-1)" fill="currentColor" stroke="currentColor"><use xlink:href="#SDAWIzbJHrlG4WvJ_iet_pad-18" x="881.5" y="1040.539"/><path d="M 836.429 941.389 836.429 831.091 M 836.429 1035.698 836.429 1027.959 M 836.429 1035.698 738.374 1035.698 738.374 929.541 M 738.374 842.844 738.374 735.827 M 836.429 741.273 836.429 735.827 M 738.374 735.827 836.429 735.827" fill="none" stroke-width="9.843"/><use xlink:href="#SDAWIzbJHrlG4WvJ_iet_pad-18" x="4031.106" y="1040.539"/><path d="M 3986.035 941.389 3986.035 831.091 M 3986.035 1035.698 3986.035 1027.959 M 3986.035 1035.698 3887.981 1035.698 3887.981 929.541 M 3887.981 842.844 3887.981 735.827 M 3986.035 741.273 3986.035 735.827 M 3887.981 735.827 3986.035 735.827" fill="none" stroke-width="9.843"/><path d="M 3491.636 745.333 3518.153 745.333 3522.826 714.135 3541.556 706.331 3566.516 726.621 3586.783 706.331 3566.516 681.376 3574.323 664.208 3605.513 659.526 3605.513 631.449 3574.323 628.328 3566.516 609.616 3585.226 584.644 3566.516 565.932 3541.556 584.644 3530.633 579.979 3515.038 617.42 3525.961 626.767 3533.748 637.693 3533.748 650.179 3530.633 661.086 3521.268 668.89 3510.346 673.573 3497.866 673.573 3486.943 667.329 3480.713 657.965 3477.598 645.496 3480.713 633.01 3488.521 622.085 3496.308 617.42 3480.713 579.979 3469.791 584.644 3444.831 565.932 3426.121 584.644 3444.831 611.177 3437.023 628.328 3405.833 631.449 3405.833 659.526 3438.601 662.647 3444.831 681.376 3424.563 706.331 3444.831 725.06 3469.791 706.331 3488.521 712.574 3491.636 745.333"/><use xlink:href="#SDAWIzbJHrlG4WvJ_iet_pad-22" x="1208.804" y="580.896"/><path d="M 1041.881 610.535 1126.239 754.301 1191.867 610.535 1041.881 610.535"/><path d="M 1205.695 747.811 1264.958 747.811 1272.786 746.26 1283.688 741.586 1291.516 736.912 1299.272 730.665 1303.954 724.418 1308.637 715.07 1310.173 707.251 1311.783 696.352 1310.173 686.982 1305.491 676.061 1299.272 669.814 1291.516 663.589 1282.151 658.893 1274.323 655.792 1322.684 610.535 1205.695 610.535 1205.695 747.811"/><path d="M 1303.954 747.811 1447.502 747.811 1427.236 708.823 1399.141 704.149 1389.776 612.108 1363.217 612.108 1353.852 704.149 1325.83 708.823 1303.954 747.811"/><path d="M 1461.55 690.105 1481.816 690.105 1502.082 610.535 1442.82 610.535 1461.55 690.105"/><path d="M 1619.072 637.051 1550.444 674.51 1619.072 710.374 1609.707 721.295 1600.342 727.542 1587.904 733.789 1575.393 736.912 1561.345 736.912 1548.907 733.789 1536.396 729.092 1525.495 721.295 1516.13 710.374 1509.911 699.453 1506.765 686.982 1505.228 674.51 1506.765 660.466 1509.911 647.972 1517.666 635.5 1527.031 626.152 1537.933 618.333 1550.444 613.658 1561.345 610.535 1575.393 610.535 1587.904 613.658 1601.951 619.905 1619.072 637.051"/><path d="M 1620.608 612.108 1684.627 757.181 1773.521 610.535 1620.608 612.108"/><use xlink:href="#SDAWIzbJHrlG4WvJ_iet_pad-23" x="1471.646" y="733.002"/><path d="M 1124.556 580.896 1137.067 580.896 1137.067 543.459 1124.556 543.459 1124.556 580.896"/><use xlink:href="#SDAWIzbJHrlG4WvJ_iet_pad-24" x="1130.811" y="582.457"/><use xlink:href="#SDAWIzbJHrlG4WvJ_iet_pad-25" x="1130.811" y="543.459"/><path d="M 1141.749 580.896 1154.187 580.896 1154.187 543.459 1141.749 543.459 1141.749 580.896"/><use xlink:href="#SDAWIzbJHrlG4WvJ_iet_pad-26" x="1147.968" y="582.457"/><use xlink:href="#SDAWIzbJHrlG4WvJ_iet_pad-27" x="1147.968" y="543.459"/><path d="M 1182.282 580.896 1194.793 580.896 1194.793 543.459 1182.282 543.459 1182.282 580.896"/><use xlink:href="#SDAWIzbJHrlG4WvJ_iet_pad-24" x="1188.538" y="582.457"/><use xlink:href="#SDAWIzbJHrlG4WvJ_iet_pad-25" x="1188.538" y="543.459"/><path d="M 1274.323 579.345 1286.834 579.345 1286.834 541.908 1274.323 541.908 1274.323 579.345"/><use xlink:href="#SDAWIzbJHrlG4WvJ_iet_pad-24" x="1280.578" y="580.907"/><use xlink:href="#SDAWIzbJHrlG4WvJ_iet_pad-24" x="1280.578" y="541.897"/><use xlink:href="#SDAWIzbJHrlG4WvJ_iet_pad-28" x="1245.46" y="562.953"/><use xlink:href="#SDAWIzbJHrlG4WvJ_iet_pad-29" x="1244.655" y="545.807"/><use xlink:href="#SDAWIzbJHrlG4WvJ_iet_pad-22" x="1654.959" y="580.896"/><path d="M 1261.812 588.693 1299.272 588.693 1299.272 576.222 1261.812 576.222 1261.812 588.693"/><use xlink:href="#SDAWIzbJHrlG4WvJ_iet_pad-24" x="1263.385" y="582.457"/><use xlink:href="#SDAWIzbJHrlG4WvJ_iet_pad-26" x="1297.735" y="582.457"/><path d="M 1311.783 580.896 1324.221 580.896 1324.221 543.459 1311.783 543.459 1311.783 580.896"/><use xlink:href="#SDAWIzbJHrlG4WvJ_iet_pad-26" x="1318.002" y="582.457"/><use xlink:href="#SDAWIzbJHrlG4WvJ_iet_pad-27" x="1318.002" y="543.459"/><path d="M 1366.363 580.896 1378.874 580.896 1378.874 562.177 1366.363 562.177 1366.363 580.896"/><use xlink:href="#SDAWIzbJHrlG4WvJ_iet_pad-24" x="1372.619" y="582.457"/><path d="M 1318.002 588.693 1352.316 588.693 1352.316 555.93 1318.002 555.93 1318.002 588.693"/><path d="M 1406.896 580.896 1419.407 580.896 1419.407 566.851 1406.896 566.851 1406.896 580.896"/><use xlink:href="#SDAWIzbJHrlG4WvJ_iet_pad-24" x="1413.152" y="582.457"/><use xlink:href="#SDAWIzbJHrlG4WvJ_iet_pad-30" x="1349.974" y="572.312"/><path d="M 1612.853 579.345 1625.291 579.345 1625.291 541.908 1612.853 541.908 1612.853 579.345"/><use xlink:href="#SDAWIzbJHrlG4WvJ_iet_pad-26" x="1619.072" y="580.907"/><use xlink:href="#SDAWIzbJHrlG4WvJ_iet_pad-26" x="1619.072" y="541.897"/><path d="M 1600.342 588.693 1637.802 588.693 1637.802 576.222 1600.342 576.222 1600.342 588.693"/><use xlink:href="#SDAWIzbJHrlG4WvJ_iet_pad-24" x="1601.915" y="582.457"/><use xlink:href="#SDAWIzbJHrlG4WvJ_iet_pad-24" x="1636.229" y="582.457"/><path d="M 1480.206 580.896 1492.717 580.896 1492.717 543.459 1480.206 543.459 1480.206 580.896"/><use xlink:href="#SDAWIzbJHrlG4WvJ_iet_pad-24" x="1486.462" y="582.457"/><use xlink:href="#SDAWIzbJHrlG4WvJ_iet_pad-25" x="1486.462" y="543.459"/><path d="M 1463.086 580.896 1475.597 580.896 1475.597 543.459 1463.086 543.459 1463.086 580.896"/><use xlink:href="#SDAWIzbJHrlG4WvJ_iet_pad-24" x="1469.341" y="582.457"/><use xlink:href="#SDAWIzbJHrlG4WvJ_iet_pad-25" x="1469.341" y="543.459"/><path d="M 1422.553 580.896 1434.991 580.896 1434.991 543.459 1422.553 543.459 1422.553 580.896"/><use xlink:href="#SDAWIzbJHrlG4WvJ_iet_pad-26" x="1428.772" y="582.457"/><use xlink:href="#SDAWIzbJHrlG4WvJ_iet_pad-27" x="1428.772" y="543.459"/><path d="M 1369.509 565.301 1378.874 565.301 1378.874 555.93 1369.509 555.93 1369.509 565.301"/><use xlink:href="#SDAWIzbJHrlG4WvJ_iet_pad-31" x="1448.27" y="557.503"/><use xlink:href="#SDAWIzbJHrlG4WvJ_iet_pad-32" x="1691.65" y="562.953"/><use xlink:href="#SDAWIzbJHrlG4WvJ_iet_pad-33" x="1690.846" y="545.807"/><path d="M 1656.532 588.693 1693.992 588.693 1693.992 576.222 1656.532 576.222 1656.532 588.693"/><use xlink:href="#SDAWIzbJHrlG4WvJ_iet_pad-26" x="1658.068" y="582.457"/><use xlink:href="#SDAWIzbJHrlG4WvJ_iet_pad-24" x="1692.419" y="582.457"/><path d="M 1651.849 569.975 1689.309 569.975 1689.309 559.054 1651.849 559.054 1651.849 569.975"/><use xlink:href="#SDAWIzbJHrlG4WvJ_iet_pad-34" x="1653.386" y="566.076"/><path d="M 1651.849 549.706 1689.309 549.706 1689.309 538.785 1651.849 538.785 1651.849 549.706"/><path d="M 1147.968 588.693 1191.647 549.706 1190.111 537.212 1183.819 540.335 1147.968 571.548 1147.968 588.693"/><path d="M 1536.396 580.896 1548.907 580.896 1548.907 543.459 1536.396 543.459 1536.396 580.896"/><use xlink:href="#SDAWIzbJHrlG4WvJ_iet_pad-24" x="1542.652" y="582.457"/><use xlink:href="#SDAWIzbJHrlG4WvJ_iet_pad-25" x="1542.652" y="543.459"/><path d="M 1576.929 580.896 1589.44 580.896 1589.44 543.459 1576.929 543.459 1576.929 580.896"/><use xlink:href="#SDAWIzbJHrlG4WvJ_iet_pad-24" x="1583.185" y="582.457"/><use xlink:href="#SDAWIzbJHrlG4WvJ_iet_pad-25" x="1583.185" y="543.459"/><path d="M 1542.615 588.693 1586.294 549.706 1584.758 537.212 1578.539 540.335 1542.615 571.548 1542.615 588.693"/><path d="M 1210.377 588.693 1247.764 588.693 1247.764 576.222 1210.377 576.222 1210.377 588.693"/><use xlink:href="#SDAWIzbJHrlG4WvJ_iet_pad-26" x="1211.914" y="582.457"/><use xlink:href="#SDAWIzbJHrlG4WvJ_iet_pad-26" x="1246.228" y="582.457"/><path d="M 1205.695 569.975 1243.155 569.975 1243.155 559.054 1205.695 559.054 1205.695 569.975"/><use xlink:href="#SDAWIzbJHrlG4WvJ_iet_pad-34" x="1207.231" y="566.076"/><use xlink:href="#SDAWIzbJHrlG4WvJ_iet_pad-35" x="1651.849" y="544.245"/><path d="M 1205.695 549.706 1243.155 549.706 1243.155 538.785 1205.695 538.785 1205.695 549.706"/><use xlink:href="#SDAWIzbJHrlG4WvJ_iet_pad-35" x="1205.695" y="544.245"/><use xlink:href="#SDAWIzbJHrlG4WvJ_iet_pad-26" x="1241.545" y="545.021"/><use xlink:href="#SDAWIzbJHrlG4WvJ_iet_pad-25" x="1355.425" y="543.459"/><path d="M 1330.513 557.503 1350.779 538.785 1360.144 548.133 1347.633 560.627 1330.513 557.503"/><path d="M 1391.312 537.212 1402.213 537.212 1413.188 545.032 1417.871 555.93 1419.407 568.424 1406.896 569.975 1405.36 557.503 1391.312 537.212"/><path d="M 1366.363 568.424 1366.363 552.829 1377.265 538.785 1394.458 537.212 1408.506 546.582 1400.677 551.256 1394.458 548.133 1385.093 549.706 1366.363 568.424"/><path d="M 1430.308 588.693 1449.038 571.548 1466.232 587.143 1472.451 577.772 1452.185 557.503 1444.356 557.503 1430.308 571.548 1430.308 588.693"/><path d="M 1201.012 579.345 1213.45 579.345 1213.45 566.851 1201.012 566.851 1201.012 579.345"/><path d="M 1241.545 560.627 1252.447 560.627 1252.447 546.582 1241.545 546.582 1241.545 560.627"/><path d="M 1486.498 590.266 1523.885 590.266 1523.885 577.772 1486.498 577.772 1486.498 590.266"/><use xlink:href="#SDAWIzbJHrlG4WvJ_iet_pad-27" x="1488.035" y="584.019"/><use xlink:href="#SDAWIzbJHrlG4WvJ_iet_pad-27" x="1522.349" y="584.019"/><path d="M 1484.889 569.975 1522.349 569.975 1522.349 557.503 1484.889 557.503 1484.889 569.975"/><use xlink:href="#SDAWIzbJHrlG4WvJ_iet_pad-24" x="1486.462" y="563.739"/><use xlink:href="#SDAWIzbJHrlG4WvJ_iet_pad-26" x="1520.812" y="563.739"/><path d="M 1486.498 549.706 1523.885 549.706 1523.885 537.212 1486.498 537.212 1486.498 549.706"/><use xlink:href="#SDAWIzbJHrlG4WvJ_iet_pad-27" x="1488.035" y="543.459"/><use xlink:href="#SDAWIzbJHrlG4WvJ_iet_pad-27" x="1522.349" y="543.459"/><use xlink:href="#SDAWIzbJHrlG4WvJ_iet_pad-24" x="1687.736" y="545.021"/><path d="M 1647.167 579.345 1659.605 579.345 1659.605 566.851 1647.167 566.851 1647.167 579.345"/><path d="M 1687.7 560.627 1698.674 560.627 1698.674 546.582 1687.7 546.582 1687.7 560.627"/><path d="M 1379.945 1147.598 1423.696 1110.098 M 1379.945 1072.597 1423.696 1110.097 M 3288.123 1150.718 3331.874 1113.218 M 3288.123 1075.717 3331.874 1113.217 M 1479.945 1147.598 1523.696 1110.098 M 1479.945 1072.597 1523.696 1110.097 M 3388.123 1150.718 3431.874 1113.218 M 3388.123 1075.717 3431.874 1113.217 M 1279.945 1147.598 1323.696 1110.098 M 1279.945 1072.597 1323.696 1110.097 M 3188.123 1150.718 3231.874 1113.218 M 3188.123 1075.717 3231.874 1113.217 M 1179.945 1147.598 1223.696 1110.098 M 1179.945 1072.597 1223.696 1110.097 M 3088.123 1150.718 3131.874 1113.218 M 3088.123 1075.717 3131.874 1113.217 M 1579.945 1147.598 1623.696 1110.098 M 1579.945 1072.597 1623.696 1110.097 M 1679.945 1147.598 1723.696 1110.098 M 1679.945 1072.597 1723.696 1110.097 M 3488.123 1150.718 3531.874 1113.218 M 3488.123 1075.717 3531.874 1113.217 M 3588.123 1150.718 3631.874 1113.218 M 3588.123 1075.717 3631.874 1113.217" fill="none" stroke-width="39.37"/><path d="M 1016.053 802.179 996.952 802.179 995.05 784.979 996.952 786.88 1002.7 788.826 1008.404 788.826 1014.152 786.88 1017.998 783.078 1019.9 777.33 1019.9 773.527 1017.998 767.779 1014.152 763.932 1008.404 762.031 1002.7 762.031 996.952 763.932 995.05 765.878 993.105 769.68 M 1032.251 788.826 1043.747 762.031 1055.199 788.826 M 1017.864 997.372 1015.963 1001.175 1012.116 1005.021 1008.313 1006.923 1000.664 1006.923 996.817 1005.021 993.015 1001.175 991.069 997.372 989.168 991.624 989.168 982.029 991.069 976.325 993.015 972.479 996.817 968.676 1000.664 966.731 1008.313 966.731 1012.116 968.676 1015.963 972.479 1017.864 976.325 1017.864 982.029 1008.313 982.029 M 1057.01 1006.923 1057.01 966.731 1030.215 1006.923 1030.215 966.731 M 1069.361 1006.923 1069.361 966.731 1082.759 966.731 1088.507 968.676 1092.353 972.479 1094.255 976.325 1096.156 982.029 1096.156 991.624 1094.255 997.372 1092.353 1001.175 1088.507 1005.021 1082.759 1006.923 1069.361 1006.923 M 994.606 906.136 994.606 865.944 M 1033.752 906.136 1033.752 865.944 1006.958 906.136 1006.958 865.944 M 3753.784 994.211 3751.883 998.013 3748.036 1001.86 3744.233 1003.761 3736.584 1003.761 3732.737 1001.86 3728.935 998.013 3726.989 994.211 3725.088 988.463 3725.088 978.868 3726.989 973.164 3728.935 969.317 3732.737 965.515 3736.584 963.569 3744.233 963.569 3748.036 965.515 3751.883 969.317 3753.784 973.164 3753.784 978.868 3744.233 978.868 M 3792.93 1003.761 3792.93 963.569 3766.135 1003.761 3766.135 963.569 M 3805.281 1003.761 3805.281 963.569 3818.679 963.569 3824.427 965.515 3828.273 969.317 3830.175 973.164 3832.076 978.868 3832.076 988.463 3830.175 994.211 3828.273 998.013 3824.427 1001.86 3818.679 1003.761 3805.281 1003.761 M 3777.086 803.717 3757.984 803.717 3756.083 786.517 3757.984 788.418 3763.733 790.364 3769.436 790.364 3775.184 788.418 3779.031 784.616 3780.932 778.868 3780.932 775.065 3779.031 769.317 3775.184 765.47 3769.436 763.569 3763.733 763.569 3757.984 765.47 3756.083 767.416 3754.138 771.218 M 3793.284 803.761 3808.582 763.569 3823.881 803.761 M 3681.4 903.761 3677.553 901.86 3673.751 898.013 3671.805 894.211 3669.904 888.463 3669.904 878.868 3671.805 873.164 3673.751 869.317 3677.553 865.515 3681.4 863.569 3689.049 863.569 3692.852 865.515 3696.699 869.317 3698.6 873.164 3700.501 878.868 3700.501 888.463 3698.6 894.211 3696.699 898.013 3692.852 901.86 3689.049 903.761 3681.4 903.761 M 3712.853 903.761 3712.853 875.065 3714.754 869.317 3718.601 865.515 3724.349 863.569 3728.151 863.569 3733.899 865.515 3737.746 869.317 3739.647 875.065 3739.647 903.761 M 3765.396 903.761 3765.396 863.569 M 3751.999 903.761 3778.793 903.761" fill="none" stroke-width="6.176"/><path d="M 916.425 1113.601 919.31 1115.06 923.621 1119.338 923.621 1089.227 M 941.506 1119.338 937.195 1117.912 934.31 1113.601 932.884 1106.438 932.884 1102.127 934.31 1094.964 937.195 1090.653 941.506 1089.227 944.358 1089.227 948.669 1090.653 951.521 1094.964 952.98 1102.127 952.98 1106.438 951.521 1113.601 948.669 1117.912 944.358 1119.338 941.506 1119.338 M 951.521 1113.601 934.31 1094.964 M 970.866 1119.338 966.555 1117.912 963.67 1113.601 962.244 1106.438 962.244 1102.127 963.67 1094.964 966.555 1090.653 970.866 1089.227 973.718 1089.227 978.029 1090.653 980.881 1094.964 982.34 1102.127 982.34 1106.438 980.881 1113.601 978.029 1117.912 973.718 1119.338 970.866 1119.338 M 980.881 1113.601 963.67 1094.964 M 1011.7 1119.371 1011.7 1089.227 991.604 1119.371 991.604 1089.227 M 2885.174 1116.725 2888.059 1118.184 2892.37 1122.462 2892.37 1092.351 M 2910.256 1122.462 2905.945 1121.036 2903.06 1116.725 2901.634 1109.562 2901.634 1105.251 2903.06 1098.088 2905.945 1093.777 2910.256 1092.351 2913.108 1092.351 2917.419 1093.777 2920.271 1098.088 2921.73 1105.251 2921.73 1109.562 2920.271 1116.725 2917.419 1121.036 2913.108 1122.462 2910.256 1122.462 M 2920.271 1116.725 2903.06 1098.088 M 2939.615 1122.462 2935.304 1121.036 2932.419 1116.725 2930.993 1109.562 2930.993 1105.251 2932.419 1098.088 2935.304 1093.777 2939.615 1092.351 2942.467 1092.351 2946.778 1093.777 2949.63 1098.088 2951.089 1105.251 2951.089 1109.562 2949.63 1116.725 2946.778 1121.036 2942.467 1122.462 2939.615 1122.462 M 2949.63 1116.725 2932.419 1098.088 M 2980.449 1122.495 2980.449 1092.351 2960.353 1122.495 2960.353 1092.351 M 3866.422 1116.725 3869.307 1118.184 3873.618 1122.462 3873.618 1092.351 M 3891.504 1122.462 3887.193 1121.036 3884.308 1116.725 3882.882 1109.562 3882.882 1105.251 3884.308 1098.088 3887.193 1093.777 3891.504 1092.351 3894.356 1092.351 3898.667 1093.777 3901.519 1098.088 3902.978 1105.251 3902.978 1109.562 3901.519 1116.725 3898.667 1121.036 3894.356 1122.462 3891.504 1122.462 M 3901.519 1116.725 3884.308 1098.088 M 3920.863 1122.462 3916.552 1121.036 3913.667 1116.725 3912.241 1109.562 3912.241 1105.251 3913.667 1098.088 3916.552 1093.777 3920.863 1092.351 3923.715 1092.351 3928.026 1093.777 3930.878 1098.088 3932.337 1105.251 3932.337 1109.562 3930.878 1116.725 3928.026 1121.036 3923.715 1122.462 3920.863 1122.462 M 3930.878 1116.725 3913.667 1098.088 M 3961.697 1122.495 3961.697 1092.351 3941.601 1122.495 3941.601 1092.351 M 1837.685 1113.601 1840.57 1115.06 1844.881 1119.338 1844.881 1089.227 M 1862.766 1119.338 1858.455 1117.912 1855.57 1113.601 1854.144 1106.438 1854.144 1102.127 1855.57 1094.964 1858.455 1090.653 1862.766 1089.227 1865.618 1089.227 1869.929 1090.653 1872.781 1094.964 1874.24 1102.127 1874.24 1106.438 1872.781 1113.601 1869.929 1117.912 1865.618 1119.338 1862.766 1119.338 M 1872.781 1113.601 1855.57 1094.964 M 1892.126 1119.338 1887.815 1117.912 1884.93 1113.601 1883.504 1106.438 1883.504 1102.127 1884.93 1094.964 1887.815 1090.653 1892.126 1089.227 1894.978 1089.227 1899.289 1090.653 1902.141 1094.964 1903.6 1102.127 1903.6 1106.438 1902.141 1113.601 1899.289 1117.912 1894.978 1119.338 1892.126 1119.338 M 1902.141 1113.601 1884.93 1094.964 M 1932.959 1119.371 1932.959 1089.227 1912.863 1119.371 1912.863 1089.227" fill="none" stroke-width="4.632"/><path d="M 1852.907 604.177 1852.907 607.029 1855.759 612.799 1858.611 615.651 1864.381 618.503 1875.855 618.503 1881.559 615.651 1884.411 612.799 1887.329 607.029 1887.329 601.325 1884.411 595.555 1878.707 587 1849.989 558.282 1890.181 558.282 M 3847.456 558.282 3847.456 618.503 3818.738 578.378 3861.782 578.378 M 878.113 606.81 883.884 609.728 892.506 618.284 892.506 558.062" fill="none" stroke-width="9.264"/><path d="M 1095.608 498.57 1097.509 496.668 1099.454 498.57 1097.509 500.515 1095.608 498.57 M 1097.509 485.172 1097.509 458.378 M 1111.806 485.172 1111.806 458.378 M 1111.806 477.523 1117.554 483.271 1121.4 485.172 1127.104 485.172 1130.951 483.271 1132.852 477.523 1132.852 458.378 M 1166.25 479.424 1164.349 483.271 1158.601 485.172 1152.853 485.172 1147.105 483.271 1145.204 479.424 1147.105 475.622 1150.952 473.676 1160.502 471.775 1164.349 469.874 1166.25 466.027 1166.25 464.126 1164.349 460.323 1158.601 458.378 1152.853 458.378 1147.105 460.323 1145.204 464.126 M 1184.35 498.57 1184.35 466.027 1186.251 460.323 1190.098 458.378 1193.9 458.378 M 1178.602 485.172 1191.999 485.172 M 1206.252 485.172 1206.252 458.378 M 1206.252 473.676 1208.197 479.424 1212 483.271 1215.847 485.172 1221.595 485.172 M 1233.946 485.172 1233.946 466.027 1235.847 460.323 1239.694 458.378 1245.442 458.378 1249.245 460.323 1254.993 466.027 M 1254.993 485.172 1254.993 458.378 M 1267.344 485.172 1267.344 458.378 M 1267.344 477.523 1273.092 483.271 1276.939 485.172 1282.643 485.172 1286.489 483.271 1288.391 477.523 1288.391 458.378 M 1288.391 477.523 1294.139 483.271 1297.985 485.172 1303.689 485.172 1307.536 483.271 1309.482 477.523 1309.482 458.378 M 1321.833 473.676 1344.781 473.676 1344.781 477.523 1342.88 481.37 1340.978 483.271 1337.132 485.172 1331.383 485.172 1327.581 483.271 1323.734 479.424 1321.833 473.676 1321.833 469.874 1323.734 464.126 1327.581 460.323 1331.383 458.378 1337.132 458.378 1340.978 460.323 1344.781 464.126 M 1357.132 485.172 1357.132 458.378 M 1357.132 477.523 1362.88 483.271 1366.727 485.172 1372.431 485.172 1376.278 483.271 1378.179 477.523 1378.179 458.378 M 1396.278 498.57 1396.278 466.027 1398.18 460.323 1402.026 458.378 1405.829 458.378 M 1390.53 485.172 1403.928 485.172 M 1439.227 479.424 1437.326 483.271 1431.578 485.172 1425.83 485.172 1420.082 483.271 1418.18 479.424 1420.082 475.622 1423.928 473.676 1433.479 471.775 1437.326 469.874 1439.227 466.027 1439.227 464.126 1437.326 460.323 1431.578 458.378 1425.83 458.378 1420.082 460.323 1418.18 464.126 M 1453.48 462.224 1451.578 460.279 1453.48 458.378 1455.425 460.279 1453.48 462.224 M 1490.724 485.172 1490.724 458.378 M 1490.724 479.424 1486.922 483.271 1483.075 485.172 1477.371 485.172 1473.524 483.271 1469.722 479.424 1467.776 473.676 1467.776 469.874 1469.722 464.126 1473.524 460.323 1477.371 458.378 1483.075 458.378 1486.922 460.323 1490.724 464.126 M 1503.076 485.172 1503.076 458.378 M 1503.076 473.676 1505.021 479.424 1508.824 483.271 1512.671 485.172 1518.419 485.172 M 1536.518 498.57 1536.518 466.027 1538.419 460.323 1542.266 458.378 1546.069 458.378 M 1530.77 485.172 1544.167 485.172 M 1558.42 498.57 1560.321 496.668 1562.267 498.57 1560.321 500.515 1558.42 498.57 M 1560.321 485.172 1560.321 458.378 M 1597.61 479.424 1593.764 483.271 1589.917 485.172 1584.213 485.172 1580.366 483.271 1576.564 479.424 1574.618 473.676 1574.618 469.874 1576.564 464.126 1580.366 460.323 1584.213 458.378 1589.917 458.378 1593.764 460.323 1597.61 464.126 M 1632.91 485.172 1632.91 458.378 M 1632.91 479.424 1629.107 483.271 1625.26 485.172 1619.556 485.172 1615.71 483.271 1611.907 479.424 1609.962 473.676 1609.962 469.874 1611.907 464.126 1615.71 460.323 1619.556 458.378 1625.26 458.378 1629.107 460.323 1632.91 464.126 M 1647.162 462.224 1645.261 460.279 1647.162 458.378 1649.108 460.279 1647.162 462.224 M 1684.451 479.424 1680.604 483.271 1676.758 485.172 1671.054 485.172 1667.207 483.271 1663.405 479.424 1661.459 473.676 1661.459 469.874 1663.405 464.126 1667.207 460.323 1671.054 458.378 1676.758 458.378 1680.604 460.323 1684.451 464.126 M 1719.795 479.424 1715.948 483.271 1712.101 485.172 1706.397 485.172 1702.551 483.271 1698.748 479.424 1696.803 473.676 1696.803 469.874 1698.748 464.126 1702.551 460.323 1706.397 458.378 1712.101 458.378 1715.948 460.323 1719.795 464.126" fill="none" stroke-width="6.176"/><path d="M 2146.044 526.856 2146.044 1249.516 1801.428 768.008 2317.955 768.008 M 2279.552 905.695 2589.15 905.695 2692.615 940.714 2727.634 974.937 2761.856 1043.383 2761.856 1112.624 2727.634 1181.07 2692.615 1216.089 2589.15 1250.312 2279.552 1250.312 2279.552 526.856 M 2520.704 905.695 2761.856 526.856" fill="none" stroke-width="111.163"/><path d="M 2349.182 1178.479 2364.481 1138.287 2379.78 1178.479 M 2392.131 1170.785 2395.978 1172.731 2401.726 1178.435 2401.726 1138.287 M 2415.978 1142.134 2414.077 1140.188 2415.978 1138.287 2417.924 1140.188 2415.978 1142.134 M 2441.771 1178.435 2436.023 1176.533 2432.177 1170.785 2430.275 1161.235 2430.275 1155.487 2432.177 1145.936 2436.023 1140.188 2441.771 1138.287 2445.574 1138.287 2451.322 1140.188 2455.124 1145.936 2457.07 1155.487 2457.07 1161.235 2455.124 1170.785 2451.322 1176.533 2445.574 1178.435 2441.771 1178.435 M 2455.124 1170.785 2432.177 1145.936" fill="none" stroke-width="6.176"/><path d="M 2915.871 672.099 2904.463 694.915 2881.383 717.995 2858.567 729.403 2812.671 729.403 2789.591 717.995 2766.776 694.915 2755.103 672.099 2743.695 637.611 2743.695 580.042 2755.103 545.819 2766.776 522.739 2789.591 499.924 2812.671 488.251 2858.567 488.251 2881.383 499.924 2904.463 522.739 2915.871 545.819 2915.871 580.042 2858.567 580.042" fill="none" stroke-width="37.054"/><path d="M 3362.86 515.901 3361.434 518.753 3358.549 521.638 3355.697 523.064 3349.96 523.064 3347.075 521.638 3344.223 518.753 3342.764 515.901 3341.338 511.59 3341.338 504.394 3342.764 500.116 3344.223 497.231 3347.075 494.379 3349.96 492.92 3355.697 492.92 3358.549 494.379 3361.434 497.231 3362.86 500.116 M 3393.646 515.901 3392.22 518.753 3389.335 521.638 3386.483 523.064 3380.746 523.064 3377.861 521.638 3375.009 518.753 3373.55 515.901 3372.124 511.59 3372.124 504.394 3373.55 500.116 3375.009 497.231 3377.861 494.379 3380.746 492.92 3386.483 492.92 3389.335 494.379 3392.22 497.231 3393.646 500.116 M 3432.07 523.064 3432.07 492.92 3445.003 492.92 3449.314 494.379 3450.74 495.805 3452.166 498.657 3452.166 502.968 3450.74 505.853 3449.314 507.279 3445.003 508.705 3449.314 510.164 3450.74 511.59 3452.166 514.442 3452.166 517.327 3450.74 520.179 3449.314 521.638 3445.003 523.064 3432.07 523.064 M 3432.07 508.705 3445.003 508.705 M 3461.429 523.064 3472.903 508.705 3472.903 492.92 M 3484.377 523.064 3472.903 508.705 M 3493.641 507.975 3510.222 507.975 M 3539.581 518.753 3536.729 521.638 3532.418 523.064 3526.681 523.064 3522.37 521.638 3519.485 518.753 3519.485 515.901 3520.944 513.016 3522.37 511.59 3525.222 510.164 3533.844 507.279 3536.729 505.853 3538.155 504.394 3539.581 501.542 3539.581 497.231 3536.729 494.379 3532.418 492.92 3526.681 492.92 3522.37 494.379 3519.485 497.231 M 3571.826 492.92 3560.319 523.064 3548.845 492.92 M 3553.156 502.968 3567.515 502.968 M 3624.609 492.92 3624.609 523.03 3610.25 502.968 3631.772 502.968 M 3642.461 495.805 3641.035 494.346 3642.461 492.92 3643.921 494.346 3642.461 495.805 M 3661.806 523.03 3657.495 521.605 3654.61 517.293 3653.184 510.131 3653.184 505.82 3654.61 498.657 3657.495 494.346 3661.806 492.92 3664.658 492.92 3668.969 494.346 3671.821 498.657 3673.28 505.82 3673.28 510.131 3671.821 517.293 3668.969 521.605 3664.658 523.03 3661.806 523.03 M 3671.821 517.293 3654.61 498.657" fill="none" stroke-width="4.632"/><path d="M 2956.294 729.403 2956.294 488.251 3059.758 488.251 3094.246 499.924 3105.654 511.331 3117.062 534.147 3117.062 568.635 3105.654 591.715 3094.246 603.123 3059.758 614.531 3094.246 626.203 3105.654 637.611 3117.062 660.426 3117.062 683.507 3105.654 706.322 3094.246 717.995 3059.758 729.403 2956.294 729.403 M 2956.294 614.531 3059.758 614.531" fill="none" stroke-width="37.054"/><path d="M 2349.182 1024.936 2358.777 984.744 2368.328 1024.936 2377.878 984.744 2387.473 1024.936 M 2426.619 1019.188 2422.817 1023.034 2417.069 1024.936 2409.419 1024.936 2403.671 1023.034 2399.824 1019.188 2399.824 1015.385 2401.77 1011.538 2403.671 1009.637 2407.474 1007.736 2418.97 1003.889 2422.817 1001.988 2424.718 1000.042 2426.619 996.24 2426.619 990.492 2422.817 986.689 2417.069 984.744 2409.419 984.744 2403.671 986.689 2399.824 990.492 M 2440.916 1015.341 2440.916 1017.242 2442.817 1021.089 2444.719 1022.99 2448.565 1024.891 2456.215 1024.891 2460.017 1022.99 2461.918 1021.089 2463.864 1017.242 2463.864 1013.44 2461.918 1009.593 2458.116 1003.889 2438.971 984.744 2465.765 984.744 M 2487.667 1024.891 2481.963 1022.99 2480.018 1019.188 2480.018 1015.341 2481.963 1011.538 2485.766 1009.593 2493.415 1007.692 2499.163 1005.79 2502.966 1001.944 2504.867 998.141 2504.867 992.393 2502.966 988.59 2501.065 986.645 2495.316 984.744 2487.667 984.744 2481.963 986.645 2480.018 988.59 2478.117 992.393 2478.117 998.141 2480.018 1001.944 2483.865 1005.79 2489.568 1007.692 2497.218 1009.593 2501.065 1011.538 2502.966 1015.341 2502.966 1019.188 2501.065 1022.99 2495.316 1024.891 2487.667 1024.891 M 2517.218 1017.242 2521.065 1019.188 2526.813 1024.891 2526.813 984.744 M 2541.11 1015.341 2541.11 1017.242 2543.011 1021.089 2544.913 1022.99 2548.759 1024.891 2556.409 1024.891 2560.211 1022.99 2562.113 1021.089 2564.058 1017.242 2564.058 1013.44 2562.113 1009.593 2558.31 1003.889 2539.165 984.744 2565.959 984.744 M 2578.311 1024.936 2578.311 984.744 2595.555 984.744 2601.303 986.689 2603.204 988.59 2605.105 992.393 2605.105 998.141 2603.204 1001.988 2601.303 1003.889 2595.555 1005.79 2601.303 1007.736 2603.204 1009.637 2605.105 1013.44 2605.105 1017.286 2603.204 1021.089 2601.303 1023.034 2595.555 1024.936 2578.311 1024.936 M 2578.311 1005.79 2595.555 1005.79" fill="none" stroke-width="6.176"/></g></svg>