G04 DipTrace 3.3.1.3*
G04 TopSilk.gbr*
%MOIN*%
G04 #@! TF.FileFunction,Legend,Top*
G04 #@! TF.Part,Single*
%ADD10C,0.009843*%
%ADD16C,0.03937*%
%ADD18C,0.027543*%
%ADD22C,0.015584*%
%ADD23C,0.032777*%
%ADD24C,0.012511*%
%ADD25C,0.012511*%
%ADD26C,0.012438*%
%ADD27C,0.012438*%
%ADD28C,0.013974*%
%ADD29O,0.015584X0.014044*%
%ADD30O,0.026485X0.032763*%
%ADD31O,0.007829X0.006247*%
%ADD32C,0.014047*%
%ADD33O,0.015657X0.014044*%
%ADD34O,0.012438X0.014044*%
%ADD35O,0.012438X0.010921*%
%ADD48C,0.004632*%
%ADD49C,0.006176*%
%ADD50C,0.009264*%
%ADD51C,0.111163*%
%ADD52C,0.037054*%
%FSLAX26Y26*%
G04*
G70*
G90*
G75*
G01*
G04 TopSilk*
%LPD*%
D18*
X881500Y1040539D3*
X836429Y941389D2*
D10*
Y831091D1*
Y1035698D2*
Y1027959D1*
Y1035698D2*
X738374D1*
Y929541D1*
Y842844D2*
Y735827D1*
X836429Y741273D2*
Y735827D1*
X738374D2*
X836429D1*
D18*
X4031106Y1040539D3*
X3986035Y941389D2*
D10*
Y831091D1*
Y1035698D2*
Y1027959D1*
Y1035698D2*
X3887981D1*
Y929541D1*
Y842844D2*
Y735827D1*
X3986035Y741273D2*
Y735827D1*
X3887981D2*
X3986035D1*
G36*
X3491636Y745333D2*
X3518153D1*
X3522826Y714135D1*
X3541556Y706331D1*
X3566516Y726621D1*
X3586783Y706331D1*
X3566516Y681376D1*
X3574323Y664208D1*
X3605513Y659526D1*
Y631449D1*
X3574323Y628328D1*
X3566516Y609616D1*
X3585226Y584644D1*
X3566516Y565932D1*
X3541556Y584644D1*
X3530633Y579979D1*
X3515038Y617420D1*
X3525961Y626767D1*
X3533748Y637693D1*
Y650179D1*
X3530633Y661086D1*
X3521268Y668890D1*
X3510346Y673573D1*
X3497866D1*
X3486943Y667329D1*
X3480713Y657965D1*
X3477598Y645496D1*
X3480713Y633010D1*
X3488521Y622085D1*
X3496308Y617420D1*
X3480713Y579979D1*
X3469791Y584644D1*
X3444831Y565932D1*
X3426121Y584644D1*
X3444831Y611177D1*
X3437023Y628328D1*
X3405833Y631449D1*
Y659526D1*
X3438601Y662647D1*
X3444831Y681376D1*
X3424563Y706331D1*
X3444831Y725060D1*
X3469791Y706331D1*
X3488521Y712574D1*
X3491636Y745333D1*
G37*
D22*
X1208804Y580896D3*
G36*
X1041881Y610535D2*
X1126239Y754301D1*
X1191867Y610535D1*
X1041881D1*
G37*
G36*
X1205695Y747811D2*
X1264958D1*
X1272786Y746260D1*
X1283688Y741586D1*
X1291516Y736912D1*
X1299272Y730665D1*
X1303954Y724418D1*
X1308637Y715070D1*
X1310173Y707251D1*
X1311783Y696352D1*
X1310173Y686982D1*
X1305491Y676061D1*
X1299272Y669814D1*
X1291516Y663589D1*
X1282151Y658893D1*
X1274323Y655792D1*
X1322684Y610535D1*
X1205695D1*
Y747811D1*
G37*
G36*
X1303954D2*
X1447502D1*
X1427236Y708823D1*
X1399141Y704149D1*
X1389776Y612108D1*
X1363217D1*
X1353852Y704149D1*
X1325830Y708823D1*
X1303954Y747811D1*
G37*
G36*
X1461550Y690105D2*
X1481816D1*
X1502082Y610535D1*
X1442820D1*
X1461550Y690105D1*
G37*
G36*
X1619072Y637051D2*
X1550444Y674510D1*
X1619072Y710374D1*
X1609707Y721295D1*
X1600342Y727542D1*
X1587904Y733789D1*
X1575393Y736912D1*
X1561345D1*
X1548907Y733789D1*
X1536396Y729092D1*
X1525495Y721295D1*
X1516130Y710374D1*
X1509911Y699453D1*
X1506765Y686982D1*
X1505228Y674510D1*
X1506765Y660466D1*
X1509911Y647972D1*
X1517666Y635500D1*
X1527031Y626152D1*
X1537933Y618333D1*
X1550444Y613658D1*
X1561345Y610535D1*
X1575393D1*
X1587904Y613658D1*
X1601951Y619905D1*
X1619072Y637051D1*
G37*
G36*
X1620608Y612108D2*
X1684627Y757181D1*
X1773521Y610535D1*
X1620608Y612108D1*
G37*
D23*
X1471646Y733002D3*
G36*
X1124556Y580896D2*
X1137067D1*
Y543459D1*
X1124556D1*
Y580896D1*
G37*
D24*
X1130811Y582457D3*
D25*
Y543459D3*
G36*
X1141749Y580896D2*
X1154187D1*
Y543459D1*
X1141749D1*
Y580896D1*
G37*
D26*
X1147968Y582457D3*
D27*
Y543459D3*
G36*
X1182282Y580896D2*
X1194793D1*
Y543459D1*
X1182282D1*
Y580896D1*
G37*
D24*
X1188538Y582457D3*
D25*
Y543459D3*
G36*
X1274323Y579345D2*
X1286834D1*
Y541908D1*
X1274323D1*
Y579345D1*
G37*
D24*
X1280578Y580907D3*
Y541897D3*
D28*
X1245460Y562953D3*
D29*
X1244655Y545807D3*
D22*
X1654959Y580896D3*
G36*
X1261812Y588693D2*
X1299272D1*
Y576222D1*
X1261812D1*
Y588693D1*
G37*
D24*
X1263385Y582457D3*
D26*
X1297735D3*
G36*
X1311783Y580896D2*
X1324221D1*
Y543459D1*
X1311783D1*
Y580896D1*
G37*
D26*
X1318002Y582457D3*
D27*
Y543459D3*
G36*
X1366363Y580896D2*
X1378874D1*
Y562177D1*
X1366363D1*
Y580896D1*
G37*
D24*
X1372619Y582457D3*
G36*
X1318002Y588693D2*
X1352316D1*
Y555930D1*
X1318002D1*
Y588693D1*
G37*
G36*
X1406896Y580896D2*
X1419407D1*
Y566851D1*
X1406896D1*
Y580896D1*
G37*
D24*
X1413152Y582457D3*
D30*
X1349974Y572312D3*
G36*
X1612853Y579345D2*
X1625291D1*
Y541908D1*
X1612853D1*
Y579345D1*
G37*
D26*
X1619072Y580907D3*
Y541897D3*
G36*
X1600342Y588693D2*
X1637802D1*
Y576222D1*
X1600342D1*
Y588693D1*
G37*
D24*
X1601915Y582457D3*
X1636229D3*
G36*
X1480206Y580896D2*
X1492717D1*
Y543459D1*
X1480206D1*
Y580896D1*
G37*
D24*
X1486462Y582457D3*
D25*
Y543459D3*
G36*
X1463086Y580896D2*
X1475597D1*
Y543459D1*
X1463086D1*
Y580896D1*
G37*
D24*
X1469341Y582457D3*
D25*
Y543459D3*
G36*
X1422553Y580896D2*
X1434991D1*
Y543459D1*
X1422553D1*
Y580896D1*
G37*
D26*
X1428772Y582457D3*
D27*
Y543459D3*
G36*
X1369509Y565301D2*
X1378874D1*
Y555930D1*
X1369509D1*
Y565301D1*
G37*
D31*
X1448270Y557503D3*
D32*
X1691650Y562953D3*
D33*
X1690846Y545807D3*
G36*
X1656532Y588693D2*
X1693992D1*
Y576222D1*
X1656532D1*
Y588693D1*
G37*
D26*
X1658068Y582457D3*
D24*
X1692419D3*
G36*
X1651849Y569975D2*
X1689309D1*
Y559054D1*
X1651849D1*
Y569975D1*
G37*
D34*
X1653386Y566076D3*
G36*
X1651849Y549706D2*
X1689309D1*
Y538785D1*
X1651849D1*
Y549706D1*
G37*
G36*
X1147968Y588693D2*
X1191647Y549706D1*
X1190111Y537212D1*
X1183819Y540335D1*
X1147968Y571548D1*
Y588693D1*
G37*
G36*
X1536396Y580896D2*
X1548907D1*
Y543459D1*
X1536396D1*
Y580896D1*
G37*
D24*
X1542652Y582457D3*
D25*
Y543459D3*
G36*
X1576929Y580896D2*
X1589440D1*
Y543459D1*
X1576929D1*
Y580896D1*
G37*
D24*
X1583185Y582457D3*
D25*
Y543459D3*
G36*
X1542615Y588693D2*
X1586294Y549706D1*
X1584758Y537212D1*
X1578539Y540335D1*
X1542615Y571548D1*
Y588693D1*
G37*
G36*
X1210377D2*
X1247764D1*
Y576222D1*
X1210377D1*
Y588693D1*
G37*
D26*
X1211914Y582457D3*
X1246228D3*
G36*
X1205695Y569975D2*
X1243155D1*
Y559054D1*
X1205695D1*
Y569975D1*
G37*
D34*
X1207231Y566076D3*
D35*
X1651849Y544245D3*
G36*
X1205695Y549706D2*
X1243155D1*
Y538785D1*
X1205695D1*
Y549706D1*
G37*
D35*
Y544245D3*
D26*
X1241545Y545021D3*
D25*
X1355425Y543459D3*
G36*
X1330513Y557503D2*
X1350779Y538785D1*
X1360144Y548133D1*
X1347633Y560627D1*
X1330513Y557503D1*
G37*
G36*
X1391312Y537212D2*
X1402213D1*
X1413188Y545032D1*
X1417871Y555930D1*
X1419407Y568424D1*
X1406896Y569975D1*
X1405360Y557503D1*
X1391312Y537212D1*
G37*
G36*
X1366363Y568424D2*
Y552829D1*
X1377265Y538785D1*
X1394458Y537212D1*
X1408506Y546582D1*
X1400677Y551256D1*
X1394458Y548133D1*
X1385093Y549706D1*
X1366363Y568424D1*
G37*
G36*
X1430308Y588693D2*
X1449038Y571548D1*
X1466232Y587143D1*
X1472451Y577772D1*
X1452185Y557503D1*
X1444356D1*
X1430308Y571548D1*
Y588693D1*
G37*
G36*
X1201012Y579345D2*
X1213450D1*
Y566851D1*
X1201012D1*
Y579345D1*
G37*
G36*
X1241545Y560627D2*
X1252447D1*
Y546582D1*
X1241545D1*
Y560627D1*
G37*
G36*
X1486498Y590266D2*
X1523885D1*
Y577772D1*
X1486498D1*
Y590266D1*
G37*
D27*
X1488035Y584019D3*
X1522349D3*
G36*
X1484889Y569975D2*
X1522349D1*
Y557503D1*
X1484889D1*
Y569975D1*
G37*
D24*
X1486462Y563739D3*
D26*
X1520812D3*
G36*
X1486498Y549706D2*
X1523885D1*
Y537212D1*
X1486498D1*
Y549706D1*
G37*
D27*
X1488035Y543459D3*
X1522349D3*
D24*
X1687736Y545021D3*
G36*
X1647167Y579345D2*
X1659605D1*
Y566851D1*
X1647167D1*
Y579345D1*
G37*
G36*
X1687700Y560627D2*
X1698674D1*
Y546582D1*
X1687700D1*
Y560627D1*
G37*
X1379945Y1147598D2*
D16*
X1423696Y1110098D1*
X1379945Y1072597D2*
X1423696Y1110097D1*
X3288123Y1150718D2*
X3331874Y1113218D1*
X3288123Y1075717D2*
X3331874Y1113217D1*
X1479945Y1147598D2*
X1523696Y1110098D1*
X1479945Y1072597D2*
X1523696Y1110097D1*
X3388123Y1150718D2*
X3431874Y1113218D1*
X3388123Y1075717D2*
X3431874Y1113217D1*
X1279945Y1147598D2*
X1323696Y1110098D1*
X1279945Y1072597D2*
X1323696Y1110097D1*
X3188123Y1150718D2*
X3231874Y1113218D1*
X3188123Y1075717D2*
X3231874Y1113217D1*
X1179945Y1147598D2*
X1223696Y1110098D1*
X1179945Y1072597D2*
X1223696Y1110097D1*
X3088123Y1150718D2*
X3131874Y1113218D1*
X3088123Y1075717D2*
X3131874Y1113217D1*
X1579945Y1147598D2*
X1623696Y1110098D1*
X1579945Y1072597D2*
X1623696Y1110097D1*
X1679945Y1147598D2*
X1723696Y1110098D1*
X1679945Y1072597D2*
X1723696Y1110097D1*
X3488123Y1150718D2*
X3531874Y1113218D1*
X3488123Y1075717D2*
X3531874Y1113217D1*
X3588123Y1150718D2*
X3631874Y1113218D1*
X3588123Y1075717D2*
X3631874Y1113217D1*
X1016053Y802179D2*
D49*
X996952D1*
X995050Y784979D1*
X996952Y786880D1*
X1002700Y788826D1*
X1008404D1*
X1014152Y786880D1*
X1017998Y783078D1*
X1019900Y777330D1*
Y773527D1*
X1017998Y767779D1*
X1014152Y763932D1*
X1008404Y762031D1*
X1002700D1*
X996952Y763932D1*
X995050Y765878D1*
X993105Y769680D1*
X1032251Y788826D2*
X1043747Y762031D1*
X1055199Y788826D1*
X1017864Y997372D2*
X1015963Y1001175D1*
X1012116Y1005021D1*
X1008313Y1006923D1*
X1000664D1*
X996817Y1005021D1*
X993015Y1001175D1*
X991069Y997372D1*
X989168Y991624D1*
Y982029D1*
X991069Y976325D1*
X993015Y972479D1*
X996817Y968676D1*
X1000664Y966731D1*
X1008313D1*
X1012116Y968676D1*
X1015963Y972479D1*
X1017864Y976325D1*
Y982029D1*
X1008313D1*
X1057010Y1006923D2*
Y966731D1*
X1030215Y1006923D1*
Y966731D1*
X1069361Y1006923D2*
Y966731D1*
X1082759D1*
X1088507Y968676D1*
X1092353Y972479D1*
X1094255Y976325D1*
X1096156Y982029D1*
Y991624D1*
X1094255Y997372D1*
X1092353Y1001175D1*
X1088507Y1005021D1*
X1082759Y1006923D1*
X1069361D1*
X994606Y906136D2*
Y865944D1*
X1033752Y906136D2*
Y865944D1*
X1006958Y906136D1*
Y865944D1*
X3753784Y994211D2*
X3751883Y998013D1*
X3748036Y1001860D1*
X3744233Y1003761D1*
X3736584D1*
X3732737Y1001860D1*
X3728935Y998013D1*
X3726989Y994211D1*
X3725088Y988463D1*
Y978868D1*
X3726989Y973164D1*
X3728935Y969317D1*
X3732737Y965515D1*
X3736584Y963569D1*
X3744233D1*
X3748036Y965515D1*
X3751883Y969317D1*
X3753784Y973164D1*
Y978868D1*
X3744233D1*
X3792930Y1003761D2*
Y963569D1*
X3766135Y1003761D1*
Y963569D1*
X3805281Y1003761D2*
Y963569D1*
X3818679D1*
X3824427Y965515D1*
X3828273Y969317D1*
X3830175Y973164D1*
X3832076Y978868D1*
Y988463D1*
X3830175Y994211D1*
X3828273Y998013D1*
X3824427Y1001860D1*
X3818679Y1003761D1*
X3805281D1*
X3777086Y803717D2*
X3757984D1*
X3756083Y786517D1*
X3757984Y788418D1*
X3763733Y790364D1*
X3769436D1*
X3775184Y788418D1*
X3779031Y784616D1*
X3780932Y778868D1*
Y775065D1*
X3779031Y769317D1*
X3775184Y765470D1*
X3769436Y763569D1*
X3763733D1*
X3757984Y765470D1*
X3756083Y767416D1*
X3754138Y771218D1*
X3793284Y803761D2*
X3808582Y763569D1*
X3823881Y803761D1*
X3681400Y903761D2*
X3677553Y901860D1*
X3673751Y898013D1*
X3671805Y894211D1*
X3669904Y888463D1*
Y878868D1*
X3671805Y873164D1*
X3673751Y869317D1*
X3677553Y865515D1*
X3681400Y863569D1*
X3689049D1*
X3692852Y865515D1*
X3696699Y869317D1*
X3698600Y873164D1*
X3700501Y878868D1*
Y888463D1*
X3698600Y894211D1*
X3696699Y898013D1*
X3692852Y901860D1*
X3689049Y903761D1*
X3681400D1*
X3712853D2*
Y875065D1*
X3714754Y869317D1*
X3718601Y865515D1*
X3724349Y863569D1*
X3728151D1*
X3733899Y865515D1*
X3737746Y869317D1*
X3739647Y875065D1*
Y903761D1*
X3765396D2*
Y863569D1*
X3751999Y903761D2*
X3778793D1*
X916425Y1113601D2*
D48*
X919310Y1115060D1*
X923621Y1119338D1*
Y1089227D1*
X941506Y1119338D2*
X937195Y1117912D1*
X934310Y1113601D1*
X932884Y1106438D1*
Y1102127D1*
X934310Y1094964D1*
X937195Y1090653D1*
X941506Y1089227D1*
X944358D1*
X948669Y1090653D1*
X951521Y1094964D1*
X952980Y1102127D1*
Y1106438D1*
X951521Y1113601D1*
X948669Y1117912D1*
X944358Y1119338D1*
X941506D1*
X951521Y1113601D2*
X934310Y1094964D1*
X970866Y1119338D2*
X966555Y1117912D1*
X963670Y1113601D1*
X962244Y1106438D1*
Y1102127D1*
X963670Y1094964D1*
X966555Y1090653D1*
X970866Y1089227D1*
X973718D1*
X978029Y1090653D1*
X980881Y1094964D1*
X982340Y1102127D1*
Y1106438D1*
X980881Y1113601D1*
X978029Y1117912D1*
X973718Y1119338D1*
X970866D1*
X980881Y1113601D2*
X963670Y1094964D1*
X1011700Y1119371D2*
Y1089227D1*
X991604Y1119371D1*
Y1089227D1*
X2885174Y1116725D2*
X2888059Y1118184D1*
X2892370Y1122462D1*
Y1092351D1*
X2910256Y1122462D2*
X2905945Y1121036D1*
X2903060Y1116725D1*
X2901634Y1109562D1*
Y1105251D1*
X2903060Y1098088D1*
X2905945Y1093777D1*
X2910256Y1092351D1*
X2913108D1*
X2917419Y1093777D1*
X2920271Y1098088D1*
X2921730Y1105251D1*
Y1109562D1*
X2920271Y1116725D1*
X2917419Y1121036D1*
X2913108Y1122462D1*
X2910256D1*
X2920271Y1116725D2*
X2903060Y1098088D1*
X2939615Y1122462D2*
X2935304Y1121036D1*
X2932419Y1116725D1*
X2930993Y1109562D1*
Y1105251D1*
X2932419Y1098088D1*
X2935304Y1093777D1*
X2939615Y1092351D1*
X2942467D1*
X2946778Y1093777D1*
X2949630Y1098088D1*
X2951089Y1105251D1*
Y1109562D1*
X2949630Y1116725D1*
X2946778Y1121036D1*
X2942467Y1122462D1*
X2939615D1*
X2949630Y1116725D2*
X2932419Y1098088D1*
X2980449Y1122495D2*
Y1092351D1*
X2960353Y1122495D1*
Y1092351D1*
X3866422Y1116725D2*
X3869307Y1118184D1*
X3873618Y1122462D1*
Y1092351D1*
X3891504Y1122462D2*
X3887193Y1121036D1*
X3884308Y1116725D1*
X3882882Y1109562D1*
Y1105251D1*
X3884308Y1098088D1*
X3887193Y1093777D1*
X3891504Y1092351D1*
X3894356D1*
X3898667Y1093777D1*
X3901519Y1098088D1*
X3902978Y1105251D1*
Y1109562D1*
X3901519Y1116725D1*
X3898667Y1121036D1*
X3894356Y1122462D1*
X3891504D1*
X3901519Y1116725D2*
X3884308Y1098088D1*
X3920863Y1122462D2*
X3916552Y1121036D1*
X3913667Y1116725D1*
X3912241Y1109562D1*
Y1105251D1*
X3913667Y1098088D1*
X3916552Y1093777D1*
X3920863Y1092351D1*
X3923715D1*
X3928026Y1093777D1*
X3930878Y1098088D1*
X3932337Y1105251D1*
Y1109562D1*
X3930878Y1116725D1*
X3928026Y1121036D1*
X3923715Y1122462D1*
X3920863D1*
X3930878Y1116725D2*
X3913667Y1098088D1*
X3961697Y1122495D2*
Y1092351D1*
X3941601Y1122495D1*
Y1092351D1*
X1837685Y1113601D2*
X1840570Y1115060D1*
X1844881Y1119338D1*
Y1089227D1*
X1862766Y1119338D2*
X1858455Y1117912D1*
X1855570Y1113601D1*
X1854144Y1106438D1*
Y1102127D1*
X1855570Y1094964D1*
X1858455Y1090653D1*
X1862766Y1089227D1*
X1865618D1*
X1869929Y1090653D1*
X1872781Y1094964D1*
X1874240Y1102127D1*
Y1106438D1*
X1872781Y1113601D1*
X1869929Y1117912D1*
X1865618Y1119338D1*
X1862766D1*
X1872781Y1113601D2*
X1855570Y1094964D1*
X1892126Y1119338D2*
X1887815Y1117912D1*
X1884930Y1113601D1*
X1883504Y1106438D1*
Y1102127D1*
X1884930Y1094964D1*
X1887815Y1090653D1*
X1892126Y1089227D1*
X1894978D1*
X1899289Y1090653D1*
X1902141Y1094964D1*
X1903600Y1102127D1*
Y1106438D1*
X1902141Y1113601D1*
X1899289Y1117912D1*
X1894978Y1119338D1*
X1892126D1*
X1902141Y1113601D2*
X1884930Y1094964D1*
X1932959Y1119371D2*
Y1089227D1*
X1912863Y1119371D1*
Y1089227D1*
X1852907Y604177D2*
D50*
Y607029D1*
X1855759Y612799D1*
X1858611Y615651D1*
X1864381Y618503D1*
X1875855D1*
X1881559Y615651D1*
X1884411Y612799D1*
X1887329Y607029D1*
Y601325D1*
X1884411Y595555D1*
X1878707Y587000D1*
X1849989Y558282D1*
X1890181D1*
X3847456D2*
Y618503D1*
X3818738Y578378D1*
X3861782D1*
X878113Y606810D2*
X883884Y609728D1*
X892506Y618284D1*
Y558062D1*
X1095608Y498570D2*
D49*
X1097509Y496668D1*
X1099454Y498570D1*
X1097509Y500515D1*
X1095608Y498570D1*
X1097509Y485172D2*
Y458378D1*
X1111806Y485172D2*
Y458378D1*
Y477523D2*
X1117554Y483271D1*
X1121400Y485172D1*
X1127104D1*
X1130951Y483271D1*
X1132852Y477523D1*
Y458378D1*
X1166250Y479424D2*
X1164349Y483271D1*
X1158601Y485172D1*
X1152853D1*
X1147105Y483271D1*
X1145204Y479424D1*
X1147105Y475622D1*
X1150952Y473676D1*
X1160502Y471775D1*
X1164349Y469874D1*
X1166250Y466027D1*
Y464126D1*
X1164349Y460323D1*
X1158601Y458378D1*
X1152853D1*
X1147105Y460323D1*
X1145204Y464126D1*
X1184350Y498570D2*
Y466027D1*
X1186251Y460323D1*
X1190098Y458378D1*
X1193900D1*
X1178602Y485172D2*
X1191999D1*
X1206252D2*
Y458378D1*
Y473676D2*
X1208197Y479424D1*
X1212000Y483271D1*
X1215847Y485172D1*
X1221595D1*
X1233946D2*
Y466027D1*
X1235847Y460323D1*
X1239694Y458378D1*
X1245442D1*
X1249245Y460323D1*
X1254993Y466027D1*
Y485172D2*
Y458378D1*
X1267344Y485172D2*
Y458378D1*
Y477523D2*
X1273092Y483271D1*
X1276939Y485172D1*
X1282643D1*
X1286489Y483271D1*
X1288391Y477523D1*
Y458378D1*
Y477523D2*
X1294139Y483271D1*
X1297985Y485172D1*
X1303689D1*
X1307536Y483271D1*
X1309482Y477523D1*
Y458378D1*
X1321833Y473676D2*
X1344781D1*
Y477523D1*
X1342880Y481370D1*
X1340978Y483271D1*
X1337132Y485172D1*
X1331383D1*
X1327581Y483271D1*
X1323734Y479424D1*
X1321833Y473676D1*
Y469874D1*
X1323734Y464126D1*
X1327581Y460323D1*
X1331383Y458378D1*
X1337132D1*
X1340978Y460323D1*
X1344781Y464126D1*
X1357132Y485172D2*
Y458378D1*
Y477523D2*
X1362880Y483271D1*
X1366727Y485172D1*
X1372431D1*
X1376278Y483271D1*
X1378179Y477523D1*
Y458378D1*
X1396278Y498570D2*
Y466027D1*
X1398180Y460323D1*
X1402026Y458378D1*
X1405829D1*
X1390530Y485172D2*
X1403928D1*
X1439227Y479424D2*
X1437326Y483271D1*
X1431578Y485172D1*
X1425830D1*
X1420082Y483271D1*
X1418180Y479424D1*
X1420082Y475622D1*
X1423928Y473676D1*
X1433479Y471775D1*
X1437326Y469874D1*
X1439227Y466027D1*
Y464126D1*
X1437326Y460323D1*
X1431578Y458378D1*
X1425830D1*
X1420082Y460323D1*
X1418180Y464126D1*
X1453480Y462224D2*
X1451578Y460279D1*
X1453480Y458378D1*
X1455425Y460279D1*
X1453480Y462224D1*
X1490724Y485172D2*
Y458378D1*
Y479424D2*
X1486922Y483271D1*
X1483075Y485172D1*
X1477371D1*
X1473524Y483271D1*
X1469722Y479424D1*
X1467776Y473676D1*
Y469874D1*
X1469722Y464126D1*
X1473524Y460323D1*
X1477371Y458378D1*
X1483075D1*
X1486922Y460323D1*
X1490724Y464126D1*
X1503076Y485172D2*
Y458378D1*
Y473676D2*
X1505021Y479424D1*
X1508824Y483271D1*
X1512671Y485172D1*
X1518419D1*
X1536518Y498570D2*
Y466027D1*
X1538419Y460323D1*
X1542266Y458378D1*
X1546069D1*
X1530770Y485172D2*
X1544167D1*
X1558420Y498570D2*
X1560321Y496668D1*
X1562267Y498570D1*
X1560321Y500515D1*
X1558420Y498570D1*
X1560321Y485172D2*
Y458378D1*
X1597610Y479424D2*
X1593764Y483271D1*
X1589917Y485172D1*
X1584213D1*
X1580366Y483271D1*
X1576564Y479424D1*
X1574618Y473676D1*
Y469874D1*
X1576564Y464126D1*
X1580366Y460323D1*
X1584213Y458378D1*
X1589917D1*
X1593764Y460323D1*
X1597610Y464126D1*
X1632910Y485172D2*
Y458378D1*
Y479424D2*
X1629107Y483271D1*
X1625260Y485172D1*
X1619556D1*
X1615710Y483271D1*
X1611907Y479424D1*
X1609962Y473676D1*
Y469874D1*
X1611907Y464126D1*
X1615710Y460323D1*
X1619556Y458378D1*
X1625260D1*
X1629107Y460323D1*
X1632910Y464126D1*
X1647162Y462224D2*
X1645261Y460279D1*
X1647162Y458378D1*
X1649108Y460279D1*
X1647162Y462224D1*
X1684451Y479424D2*
X1680604Y483271D1*
X1676758Y485172D1*
X1671054D1*
X1667207Y483271D1*
X1663405Y479424D1*
X1661459Y473676D1*
Y469874D1*
X1663405Y464126D1*
X1667207Y460323D1*
X1671054Y458378D1*
X1676758D1*
X1680604Y460323D1*
X1684451Y464126D1*
X1719795Y479424D2*
X1715948Y483271D1*
X1712101Y485172D1*
X1706397D1*
X1702551Y483271D1*
X1698748Y479424D1*
X1696803Y473676D1*
Y469874D1*
X1698748Y464126D1*
X1702551Y460323D1*
X1706397Y458378D1*
X1712101D1*
X1715948Y460323D1*
X1719795Y464126D1*
X2146044Y526856D2*
D51*
Y1249516D1*
X1801428Y768008D1*
X2317955D1*
X2279552Y905695D2*
X2589150D1*
X2692615Y940714D1*
X2727634Y974937D1*
X2761856Y1043383D1*
Y1112624D1*
X2727634Y1181070D1*
X2692615Y1216089D1*
X2589150Y1250312D1*
X2279552D1*
Y526856D1*
X2520704Y905695D2*
X2761856Y526856D1*
X2349182Y1178479D2*
D49*
X2364481Y1138287D1*
X2379780Y1178479D1*
X2392131Y1170785D2*
X2395978Y1172731D1*
X2401726Y1178435D1*
Y1138287D1*
X2415978Y1142134D2*
X2414077Y1140188D1*
X2415978Y1138287D1*
X2417924Y1140188D1*
X2415978Y1142134D1*
X2441771Y1178435D2*
X2436023Y1176533D1*
X2432177Y1170785D1*
X2430275Y1161235D1*
Y1155487D1*
X2432177Y1145936D1*
X2436023Y1140188D1*
X2441771Y1138287D1*
X2445574D1*
X2451322Y1140188D1*
X2455124Y1145936D1*
X2457070Y1155487D1*
Y1161235D1*
X2455124Y1170785D1*
X2451322Y1176533D1*
X2445574Y1178435D1*
X2441771D1*
X2455124Y1170785D2*
X2432177Y1145936D1*
X2915871Y672099D2*
D52*
X2904463Y694915D1*
X2881383Y717995D1*
X2858567Y729403D1*
X2812671D1*
X2789591Y717995D1*
X2766776Y694915D1*
X2755103Y672099D1*
X2743695Y637611D1*
Y580042D1*
X2755103Y545819D1*
X2766776Y522739D1*
X2789591Y499924D1*
X2812671Y488251D1*
X2858567D1*
X2881383Y499924D1*
X2904463Y522739D1*
X2915871Y545819D1*
Y580042D1*
X2858567D1*
X3362860Y515901D2*
D48*
X3361434Y518753D1*
X3358549Y521638D1*
X3355697Y523064D1*
X3349960D1*
X3347075Y521638D1*
X3344223Y518753D1*
X3342764Y515901D1*
X3341338Y511590D1*
Y504394D1*
X3342764Y500116D1*
X3344223Y497231D1*
X3347075Y494379D1*
X3349960Y492920D1*
X3355697D1*
X3358549Y494379D1*
X3361434Y497231D1*
X3362860Y500116D1*
X3393646Y515901D2*
X3392220Y518753D1*
X3389335Y521638D1*
X3386483Y523064D1*
X3380746D1*
X3377861Y521638D1*
X3375009Y518753D1*
X3373550Y515901D1*
X3372124Y511590D1*
Y504394D1*
X3373550Y500116D1*
X3375009Y497231D1*
X3377861Y494379D1*
X3380746Y492920D1*
X3386483D1*
X3389335Y494379D1*
X3392220Y497231D1*
X3393646Y500116D1*
X3432070Y523064D2*
Y492920D1*
X3445003D1*
X3449314Y494379D1*
X3450740Y495805D1*
X3452166Y498657D1*
Y502968D1*
X3450740Y505853D1*
X3449314Y507279D1*
X3445003Y508705D1*
X3449314Y510164D1*
X3450740Y511590D1*
X3452166Y514442D1*
Y517327D1*
X3450740Y520179D1*
X3449314Y521638D1*
X3445003Y523064D1*
X3432070D1*
Y508705D2*
X3445003D1*
X3461429Y523064D2*
X3472903Y508705D1*
Y492920D1*
X3484377Y523064D2*
X3472903Y508705D1*
X3493641Y507975D2*
X3510222D1*
X3539581Y518753D2*
X3536729Y521638D1*
X3532418Y523064D1*
X3526681D1*
X3522370Y521638D1*
X3519485Y518753D1*
Y515901D1*
X3520944Y513016D1*
X3522370Y511590D1*
X3525222Y510164D1*
X3533844Y507279D1*
X3536729Y505853D1*
X3538155Y504394D1*
X3539581Y501542D1*
Y497231D1*
X3536729Y494379D1*
X3532418Y492920D1*
X3526681D1*
X3522370Y494379D1*
X3519485Y497231D1*
X3571826Y492920D2*
X3560319Y523064D1*
X3548845Y492920D1*
X3553156Y502968D2*
X3567515D1*
X3624609Y492920D2*
Y523030D1*
X3610250Y502968D1*
X3631772D1*
X3642461Y495805D2*
X3641035Y494346D1*
X3642461Y492920D1*
X3643921Y494346D1*
X3642461Y495805D1*
X3661806Y523030D2*
X3657495Y521605D1*
X3654610Y517293D1*
X3653184Y510131D1*
Y505820D1*
X3654610Y498657D1*
X3657495Y494346D1*
X3661806Y492920D1*
X3664658D1*
X3668969Y494346D1*
X3671821Y498657D1*
X3673280Y505820D1*
Y510131D1*
X3671821Y517293D1*
X3668969Y521605D1*
X3664658Y523030D1*
X3661806D1*
X3671821Y517293D2*
X3654610Y498657D1*
X2956294Y729403D2*
D52*
Y488251D1*
X3059758D1*
X3094246Y499924D1*
X3105654Y511331D1*
X3117062Y534147D1*
Y568635D1*
X3105654Y591715D1*
X3094246Y603123D1*
X3059758Y614531D1*
X3094246Y626203D1*
X3105654Y637611D1*
X3117062Y660426D1*
Y683507D1*
X3105654Y706322D1*
X3094246Y717995D1*
X3059758Y729403D1*
X2956294D1*
Y614531D2*
X3059758D1*
X2349182Y1024936D2*
D49*
X2358777Y984744D1*
X2368328Y1024936D1*
X2377878Y984744D1*
X2387473Y1024936D1*
X2426619Y1019188D2*
X2422817Y1023034D1*
X2417069Y1024936D1*
X2409419D1*
X2403671Y1023034D1*
X2399824Y1019188D1*
Y1015385D1*
X2401770Y1011538D1*
X2403671Y1009637D1*
X2407474Y1007736D1*
X2418970Y1003889D1*
X2422817Y1001988D1*
X2424718Y1000042D1*
X2426619Y996240D1*
Y990492D1*
X2422817Y986689D1*
X2417069Y984744D1*
X2409419D1*
X2403671Y986689D1*
X2399824Y990492D1*
X2440916Y1015341D2*
Y1017242D1*
X2442817Y1021089D1*
X2444719Y1022990D1*
X2448565Y1024891D1*
X2456215D1*
X2460017Y1022990D1*
X2461918Y1021089D1*
X2463864Y1017242D1*
Y1013440D1*
X2461918Y1009593D1*
X2458116Y1003889D1*
X2438971Y984744D1*
X2465765D1*
X2487667Y1024891D2*
X2481963Y1022990D1*
X2480018Y1019188D1*
Y1015341D1*
X2481963Y1011538D1*
X2485766Y1009593D1*
X2493415Y1007692D1*
X2499163Y1005790D1*
X2502966Y1001944D1*
X2504867Y998141D1*
Y992393D1*
X2502966Y988590D1*
X2501065Y986645D1*
X2495316Y984744D1*
X2487667D1*
X2481963Y986645D1*
X2480018Y988590D1*
X2478117Y992393D1*
Y998141D1*
X2480018Y1001944D1*
X2483865Y1005790D1*
X2489568Y1007692D1*
X2497218Y1009593D1*
X2501065Y1011538D1*
X2502966Y1015341D1*
Y1019188D1*
X2501065Y1022990D1*
X2495316Y1024891D1*
X2487667D1*
X2517218Y1017242D2*
X2521065Y1019188D1*
X2526813Y1024891D1*
Y984744D1*
X2541110Y1015341D2*
Y1017242D1*
X2543011Y1021089D1*
X2544913Y1022990D1*
X2548759Y1024891D1*
X2556409D1*
X2560211Y1022990D1*
X2562113Y1021089D1*
X2564058Y1017242D1*
Y1013440D1*
X2562113Y1009593D1*
X2558310Y1003889D1*
X2539165Y984744D1*
X2565959D1*
X2578311Y1024936D2*
Y984744D1*
X2595555D1*
X2601303Y986689D1*
X2603204Y988590D1*
X2605105Y992393D1*
Y998141D1*
X2603204Y1001988D1*
X2601303Y1003889D1*
X2595555Y1005790D1*
X2601303Y1007736D1*
X2603204Y1009637D1*
X2605105Y1013440D1*
Y1017286D1*
X2603204Y1021089D1*
X2601303Y1023034D1*
X2595555Y1024936D1*
X2578311D1*
Y1005790D2*
X2595555D1*
M02*
